<?xml version="1.0" encoding="utf-8"?>
<!-- Generator: Adobe Illustrator 19.0.0, SVG Export Plug-In . SVG Version: 6.00 Build 0)  -->
<svg version="1.1" xmlns="http://www.w3.org/2000/svg" xmlns:xlink="http://www.w3.org/1999/xlink" x="0px" y="0px"
	 viewBox="0 0 1615.7 425.2" style="enable-background:new 0 0 1615.7 425.2;" xml:space="preserve">
<style type="text/css">
	.st0{fill:#FFFFFF;}
	.st1{stroke:#000000;stroke-width:5;stroke-miterlimit:10;}
</style>
<g id="Layer_1">
</g>
<g id="Layer_2">
	<g>
		<rect x="2.5" y="2.5" class="st0" width="420.2" height="420.2"/>
		<path d="M420.2,5v415.2H5V5H420.2 M425.2,0H0v425.2h425.2V0L425.2,0z"/>
	</g>
	<circle cx="266.5" cy="104.6" r="14.2"/>
	<circle cx="266.5" cy="172.8" r="14.2"/>
	<circle cx="155.3" cy="170.1" r="14.2"/>
	<circle cx="163.6" cy="243.7" r="14.2"/>
	<circle cx="273.3" cy="253.6" r="14.2"/>
	<circle cx="259.1" cy="314.5" r="14.2"/>
	<circle cx="47.1" cy="167" r="14.2"/>
	<circle cx="376.2" cy="172.8" r="14.2"/>
	<circle cx="369.1" cy="249" r="14.2"/>
	<circle cx="160.5" cy="314.5" r="14.2"/>
	<circle cx="160.5" cy="385.4" r="14.2"/>
	<circle cx="169.4" cy="101.9" r="14.2"/>
	<rect x="43.1" y="87.8" width="28.3" height="28.3"/>
	<rect x="54.6" y="22.4" width="28.3" height="28.3"/>
	<rect x="135.2" y="12.1" width="28.3" height="28.3"/>
	<rect x="262.6" y="16.9" width="28.3" height="28.3"/>
	<rect x="347.8" y="12.1" width="28.3" height="28.3"/>
	<rect x="362" y="87.8" width="28.3" height="28.3"/>
	<rect x="26.3" y="229.5" width="28.3" height="28.3"/>
	<rect x="47.1" y="303.8" width="28.3" height="28.3"/>
	<rect x="35.8" y="371.2" width="28.3" height="28.3"/>
	<rect x="259.1" y="375.2" width="28.3" height="28.3"/>
	<rect x="355" y="371.2" width="28.3" height="28.3"/>
	<rect x="362" y="303.8" width="28.3" height="28.3"/>
	<g>
		<rect x="597.8" y="2.5" class="st0" width="420.2" height="420.2"/>
		<path d="M1015.5,5v415.2H600.3V5H1015.5 M1020.5,0H595.3v425.2h425.2V0L1020.5,0z"/>
	</g>
	<circle cx="861.3" cy="104.6" r="14.2"/>
	<circle cx="861.3" cy="172.8" r="14.2"/>
	<circle cx="750.1" cy="170.1" r="14.2"/>
	<circle cx="758.4" cy="243.7" r="14.2"/>
	<circle cx="868.1" cy="253.6" r="14.2"/>
	<circle cx="853.9" cy="314.5" r="14.2"/>
	<circle cx="641.9" cy="167" r="14.2"/>
	<circle cx="971" cy="172.8" r="14.2"/>
	<circle cx="963.9" cy="249" r="14.2"/>
	<circle cx="755.3" cy="314.5" r="14.2"/>
	<circle cx="755.3" cy="385.4" r="14.2"/>
	<circle cx="764.2" cy="101.9" r="14.2"/>
	<rect x="637.9" y="87.8" width="28.3" height="28.3"/>
	<rect x="649.4" y="22.4" width="28.3" height="28.3"/>
	<rect x="730" y="12.1" width="28.3" height="28.3"/>
	<rect x="857.4" y="16.9" width="28.3" height="28.3"/>
	<rect x="942.6" y="12.1" width="28.3" height="28.3"/>
	<rect x="956.8" y="87.8" width="28.3" height="28.3"/>
	<rect x="621.1" y="229.5" width="28.3" height="28.3"/>
	<rect x="641.9" y="303.8" width="28.3" height="28.3"/>
	<rect x="630.6" y="371.2" width="28.3" height="28.3"/>
	<rect x="853.9" y="375.2" width="28.3" height="28.3"/>
	<rect x="949.8" y="371.2" width="28.3" height="28.3"/>
	<rect x="956.8" y="303.8" width="28.3" height="28.3"/>
	<g>
		<path d="M1610.7,5v415.2h-415.2V5H1610.7 M1615.7,0h-425.2v425.2h425.2V0L1615.7,0z"/>
	</g>
	<circle cx="1455.4" cy="104.6" r="14.2"/>
	<circle cx="1455.4" cy="172.8" r="14.2"/>
	<circle cx="1344.2" cy="170.1" r="14.2"/>
	<circle cx="1352.5" cy="243.7" r="14.2"/>
	<circle cx="1462.3" cy="253.6" r="14.2"/>
	<circle cx="1448.1" cy="314.5" r="14.2"/>
	<circle cx="1236.1" cy="167" r="14.2"/>
	<circle cx="1565.1" cy="172.8" r="14.2"/>
	<circle cx="1558.1" cy="249" r="14.2"/>
	<circle cx="1349.4" cy="314.5" r="14.2"/>
	<circle cx="1349.4" cy="385.4" r="14.2"/>
	<circle cx="1358.4" cy="101.9" r="14.2"/>
	<rect x="1232.1" y="87.8" width="28.3" height="28.3"/>
	<rect x="1243.6" y="22.4" width="28.3" height="28.3"/>
	<rect x="1324.2" y="12.1" width="28.3" height="28.3"/>
	<rect x="1451.5" y="16.9" width="28.3" height="28.3"/>
	<rect x="1536.8" y="12.1" width="28.3" height="28.3"/>
	<rect x="1551" y="87.8" width="28.3" height="28.3"/>
	<rect x="1215.2" y="229.5" width="28.3" height="28.3"/>
	<rect x="1236.1" y="303.8" width="28.3" height="28.3"/>
	<rect x="1224.7" y="371.2" width="28.3" height="28.3"/>
	<rect x="1448.1" y="375.2" width="28.3" height="28.3"/>
	<rect x="1543.9" y="371.2" width="28.3" height="28.3"/>
	<rect x="1551" y="303.8" width="28.3" height="28.3"/>
</g>
<g id="Layer_3">
	<line class="st1" x1="807.9" y1="0" x2="807.9" y2="425.2"/>
	<line class="st1" x1="595.3" y1="212.6" x2="1020.5" y2="212.6"/>
	<line class="st1" x1="213.1" y1="0" x2="213.1" y2="137.3"/>
	<line class="st1" x1="213.1" y1="137.3" x2="108.8" y2="137.3"/>
	<line class="st1" x1="108.8" y1="137.3" x2="108.8" y2="277.3"/>
	<line class="st1" x1="0.5" y1="277.3" x2="213.1" y2="277.3"/>
	<line class="st1" x1="213.1" y1="277.3" x2="213.1" y2="346.7"/>
	<line class="st1" x1="213.1" y1="346.7" x2="422.1" y2="346.7"/>
	<line class="st1" x1="213.1" y1="64.7" x2="324.8" y2="64.7"/>
	<line class="st1" x1="324.8" y1="64.7" x2="324.8" y2="346.7"/>
	<line class="st1" x1="1614.6" y1="137.3" x2="1402" y2="137.3"/>
	<line class="st1" x1="1402" y1="137.3" x2="1402" y2="277.3"/>
	<line class="st1" x1="1402" y1="277.3" x2="1514.7" y2="277.3"/>
	<line class="st1" x1="1514.7" y1="277.3" x2="1514.7" y2="425.2"/>
	<line class="st1" x1="1193.1" y1="354" x2="1302.7" y2="354"/>
	<line class="st1" x1="1302.7" y1="354" x2="1302.7" y2="212.6"/>
	<line class="st1" x1="1302.7" y1="212.6" x2="1402" y2="212.6"/>
	<line class="st1" x1="1193.1" y1="134" x2="1302.7" y2="134"/>
	<line class="st1" x1="1302.7" y1="134" x2="1302.7" y2="72"/>
	<line class="st1" x1="1302.7" y1="72" x2="1508.3" y2="72"/>
	<line class="st1" x1="1508.3" y1="72" x2="1508.3" y2="137.3"/>
</g>
</svg>
