<?xml version="1.0" encoding="utf-8"?>
<!-- Generator: Adobe Illustrator 19.0.0, SVG Export Plug-In . SVG Version: 6.00 Build 0)  -->
<svg version="1.1" xmlns="http://www.w3.org/2000/svg" xmlns:xlink="http://www.w3.org/1999/xlink" x="0px" y="0px"
	 viewBox="0 0 779.2 408.7" style="enable-background:new 0 0 779.2 408.7;" xml:space="preserve">
<style type="text/css">
	.st0{fill:none;stroke:#000000;stroke-miterlimit:10;stroke-dasharray:3,3;}
	.st1{fill:#FFFFFF;stroke:#000000;stroke-miterlimit:10;}
	.st2{display:none;}
	.st3{display:inline;}
	.st4{display:inline;fill:#FFFFFF;stroke:#000000;stroke-miterlimit:10;}
	.st5{display:inline;fill:#E30613;}
	.st6{font-family:'MyriadPro-Regular';}
	.st7{font-size:12px;}
	.st8{letter-spacing:1;}
	.st9{fill:none;stroke:#000000;stroke-miterlimit:10;}
	.st10{fill:none;stroke:#E30613;stroke-miterlimit:10;}
	.st11{fill:#E30613;}
</style>
<g id="Warstwa_1">
	<g id="XMLID_34_">
		<g id="XMLID_102_">
			<line id="XMLID_105_" class="st0" x1="711.3" y1="201.3" x2="656.1" y2="201.3"/>
			<g id="XMLID_103_">
				<polygon id="XMLID_104_" points="657.6,196.3 648.9,201.3 657.6,206.2 				"/>
			</g>
		</g>
	</g>
	<circle id="XMLID_33_" class="st1" cx="750.4" cy="201.8" r="28.3"/>
	<g id="XMLID_379_">
		<path id="XMLID_380_" d="M751.5,203.4l0.1,0.1l-0.2,0.4c-0.4,0.3-0.7,0.5-1.1,0.6c-0.3,0.1-0.7,0.2-1.2,0.2c-0.8,0-1.5-0.2-2-0.6
			c-0.5-0.4-0.7-0.9-0.7-1.4c0-0.9,0.7-1.5,2-1.7v-0.1c-0.5-0.1-0.9-0.3-1.1-0.5c-0.2-0.2-0.3-0.5-0.3-0.9c0-0.5,0.2-0.8,0.6-1.1
			s1-0.4,1.8-0.4c0.8,0,1.5,0.2,1.9,0.6c-0.2,0.4-0.4,0.7-0.5,0.9l-0.2-0.1c0-0.4-0.2-0.7-0.4-0.9c-0.2-0.2-0.5-0.3-0.9-0.3
			c-0.4,0-0.7,0.1-0.9,0.3c-0.3,0.2-0.4,0.5-0.4,0.9c0,0.2,0,0.5,0.2,0.6c0.1,0.2,0.2,0.3,0.4,0.4c0.2,0.1,0.4,0.2,0.8,0.2
			c0.3,0,0.6,0,1-0.1l0.1,0.1c0,0.2-0.1,0.3-0.1,0.4l-0.1,0.1c-0.3-0.1-0.6-0.1-0.9-0.1c-0.5,0-0.9,0.1-1.2,0.4s-0.4,0.6-0.4,1
			c0,0.5,0.2,0.9,0.5,1.2c0.4,0.3,0.8,0.5,1.4,0.5C750.3,204,750.9,203.8,751.5,203.4z"/>
		<path id="XMLID_382_" d="M755.1,205.2L755.1,205.2c0,0.4,0,0.8,0,1.4v0.9c0,0.1,0,0.2,0,0.6c0,0.3,0,0.5,0,0.6s0,0.1,0.1,0.1
			c0,0,0.1,0,0.1,0c0,0,0.2,0,0.4,0l0,0v0.2l0,0c-0.3,0-0.7,0-1,0c-0.3,0-0.6,0-1,0l0,0v-0.2l0,0c0.3,0,0.4,0,0.4,0c0,0,0.1,0,0.1,0
			c0,0,0-0.1,0.1-0.1c0-0.1,0-0.2,0-0.5c0-0.3,0-0.5,0-0.7v-0.8c0-0.1,0-0.3,0-0.4c0-0.2,0-0.3,0-0.3c0,0,0-0.1-0.1-0.1
			c0,0-0.1,0-0.2,0l-0.3,0l0,0v-0.2l0,0C754.4,205.5,754.8,205.4,755.1,205.2z M754.8,203.5c0.1,0,0.2,0,0.3,0.1
			c0.1,0.1,0.1,0.2,0.1,0.3c0,0.1,0,0.2-0.1,0.3c-0.1,0.1-0.2,0.1-0.3,0.1c-0.1,0-0.2,0-0.3-0.1c-0.1-0.1-0.1-0.2-0.1-0.3
			c0-0.1,0-0.2,0.1-0.3C754.6,203.5,754.7,203.5,754.8,203.5z"/>
	</g>
</g>
<g id="Warstwa_4" class="st2">
	<g id="XMLID_12_" class="st3">
		<g id="XMLID_43_">
			<line id="XMLID_46_" class="st0" x1="221.4" y1="163.7" x2="260.5" y2="202.7"/>
			<g id="XMLID_44_">
				<polygon id="XMLID_45_" points="255.9,205.2 265.5,207.7 263,198.1 				"/>
			</g>
		</g>
	</g>
	<circle id="XMLID_13_" class="st4" cx="193.1" cy="135.3" r="28.3"/>
	<text id="XMLID_14_" transform="matrix(1 0 0 1 182.9605 138.8275)" class="st5 st6 st7 st8">(...)</text>
</g>
<g id="Warstwa_2">
	<rect id="XMLID_142_" x="0.5" y="173.4" class="st1" width="170.1" height="56.7"/>
	<rect id="XMLID_141_" x="468.2" y="173.4" class="st1" width="170.1" height="56.7"/>
	<g id="XMLID_135_">
		<g id="XMLID_137_">
			<line id="XMLID_140_" class="st9" x1="186.2" y1="201.8" x2="451.1" y2="201.8"/>
			<g id="XMLID_138_">
				<polygon id="XMLID_139_" points="449.7,206.7 458.3,201.8 449.7,196.8 				"/>
			</g>
		</g>
	</g>
</g>
<g id="Warstwa_3">
	<circle id="XMLID_3_" class="st1" cx="239.9" cy="58.6" r="56.7"/>
	<g id="XMLID_6_">
		<g id="XMLID_150_">
			<line id="XMLID_153_" class="st0" x1="239.9" y1="130.4" x2="239.9" y2="185.6"/>
			<g id="XMLID_151_">
				<polygon id="XMLID_152_" points="234.9,184.1 239.9,192.8 244.9,184.1 				"/>
			</g>
		</g>
	</g>
	<g id="XMLID_315_">
		<path id="XMLID_316_" d="M227.2,39.4h1.2l-3.5,8.2h-0.3l-3.5-8.2h1.2l2.5,5.7L227.2,39.4z"/>
		<path id="XMLID_318_" d="M231.7,42.2c0.8,0,1.5,0.3,2,0.8s0.8,1.2,0.8,2c0,0.8-0.3,1.4-0.8,1.9s-1.2,0.8-2.1,0.8
			c-0.8,0-1.5-0.3-2-0.8s-0.8-1.2-0.8-2c0-0.8,0.3-1.4,0.8-2S230.9,42.2,231.7,42.2z M231.6,43.1c-0.5,0-0.9,0.2-1.3,0.5
			s-0.5,0.8-0.5,1.3c0,0.5,0.2,0.9,0.5,1.3s0.8,0.5,1.3,0.5c0.5,0,1-0.2,1.3-0.5s0.5-0.8,0.5-1.3c0-0.5-0.2-0.9-0.5-1.3
			S232.2,43.1,231.6,43.1z"/>
		<path id="XMLID_321_" d="M236.2,43l2-2v1.1h1.7v1h-1.7v2.6c0,0.6,0.3,0.9,0.8,0.9c0.4,0,0.8-0.1,1.2-0.4v1
			c-0.4,0.2-0.9,0.3-1.3,0.3c-0.5,0-0.9-0.1-1.2-0.4c-0.1-0.1-0.2-0.2-0.3-0.3s-0.1-0.2-0.2-0.4s-0.1-0.5-0.1-1v-2.4h-0.9V43z"/>
		<path id="XMLID_323_" d="M242.7,39.9c0.2,0,0.3,0.1,0.5,0.2s0.2,0.3,0.2,0.4c0,0.2-0.1,0.3-0.2,0.4s-0.3,0.2-0.5,0.2
			c-0.2,0-0.3-0.1-0.4-0.2s-0.2-0.3-0.2-0.4c0-0.2,0.1-0.3,0.2-0.4S242.5,39.9,242.7,39.9z M242.2,42.2h1.1v5.4h-1.1V42.2z"/>
		<path id="XMLID_326_" d="M247,42.2v0.7c0.5-0.5,1-0.8,1.6-0.8c0.3,0,0.6,0.1,0.9,0.3s0.5,0.4,0.7,0.7s0.2,0.8,0.2,1.4v3.1h-1.1
			v-3.1c0-0.6-0.1-0.9-0.3-1.2s-0.4-0.4-0.8-0.4c-0.5,0-0.9,0.3-1.3,0.8v3.8h-1.1v-5.4H247z"/>
		<path id="XMLID_328_" d="M252.9,44c0-0.6,0.2-1,0.6-1.4s1-0.5,1.7-0.5h2.2V43h-1.1c0.2,0.2,0.4,0.4,0.4,0.6s0.1,0.4,0.1,0.6
			c0,0.3-0.1,0.6-0.2,0.8s-0.4,0.5-0.6,0.6s-0.7,0.3-1.2,0.3c-0.4,0.1-0.6,0.2-0.6,0.4c0,0.1,0.1,0.2,0.2,0.3s0.4,0.2,0.8,0.2
			c0.7,0.1,1.1,0.3,1.3,0.3s0.4,0.2,0.5,0.4c0.3,0.3,0.4,0.6,0.4,1c0,0.5-0.2,0.9-0.7,1.2s-1.1,0.5-1.8,0.5c-0.8,0-1.4-0.2-1.8-0.5
			s-0.7-0.7-0.7-1.2c0-0.7,0.5-1.2,1.4-1.4c-0.4-0.2-0.5-0.5-0.5-0.7c0-0.2,0.1-0.3,0.2-0.5s0.4-0.2,0.6-0.3
			C253.3,45.4,252.9,44.8,252.9,44z M254.6,47.8c-0.4,0-0.7,0.1-0.9,0.2s-0.3,0.3-0.3,0.6c0,0.6,0.5,0.8,1.5,0.8
			c0.5,0,0.8-0.1,1.1-0.2s0.4-0.3,0.4-0.6c0-0.3-0.2-0.5-0.5-0.6S255.2,47.8,254.6,47.8z M254.9,43.1c-0.3,0-0.5,0.1-0.7,0.3
			s-0.3,0.4-0.3,0.7c0,0.3,0.1,0.5,0.3,0.7s0.5,0.3,0.8,0.3c0.3,0,0.6-0.1,0.8-0.3s0.3-0.4,0.3-0.7c0-0.3-0.1-0.5-0.3-0.7
			S255.2,43.1,254.9,43.1z"/>
		<path id="XMLID_332_" d="M222.6,58V62h-1.1v-3c0-0.6-0.1-1-0.2-1.3s-0.4-0.4-0.8-0.4c-0.2,0-0.4,0.1-0.6,0.2s-0.4,0.3-0.6,0.5V62
			h-1.1v-5.4h1.1v0.7c0.5-0.5,1.1-0.8,1.6-0.8c0.7,0,1.2,0.3,1.6,1c0.6-0.7,1.2-1,1.8-1c0.5,0,1,0.2,1.3,0.6s0.5,1,0.5,1.8V62h-1.1
			v-3.2c0-0.4-0.1-0.8-0.3-1s-0.4-0.4-0.8-0.4C223.4,57.4,223,57.6,222.6,58z"/>
		<path id="XMLID_334_" d="M233.3,59.4h-3.8c0,0.5,0.2,0.9,0.5,1.2s0.7,0.5,1.2,0.5c0.7,0,1.4-0.2,1.9-0.7v1c-0.3,0.2-0.7,0.4-1,0.5
			s-0.7,0.1-1.1,0.1c-0.6,0-1.1-0.1-1.4-0.4s-0.7-0.6-0.9-1s-0.3-0.9-0.3-1.4c0-0.8,0.2-1.5,0.7-2s1.1-0.8,1.8-0.8
			c0.7,0,1.3,0.3,1.7,0.8s0.6,1.2,0.6,2V59.4z M229.5,58.7h2.7c0-0.4-0.2-0.8-0.4-1s-0.5-0.3-0.9-0.3s-0.7,0.1-0.9,0.3
			S229.6,58.3,229.5,58.7z"/>
		<path id="XMLID_337_" d="M234.9,57.4l2-2v1.1h1.7v1h-1.7v2.6c0,0.6,0.3,0.9,0.8,0.9c0.4,0,0.8-0.1,1.2-0.4v1
			c-0.4,0.2-0.9,0.3-1.3,0.3c-0.5,0-0.9-0.1-1.2-0.4c-0.1-0.1-0.2-0.2-0.3-0.3s-0.1-0.2-0.2-0.4s-0.1-0.5-0.1-1v-2.4h-0.9V57.4z"/>
		<path id="XMLID_339_" d="M240.8,53.8h1.1v3.5c0.4-0.5,1-0.8,1.7-0.8c0.4,0,0.7,0.1,1,0.3s0.5,0.4,0.6,0.7s0.2,0.8,0.2,1.4V62h-1.1
			v-3.3c0-0.4-0.1-0.7-0.3-1s-0.4-0.4-0.8-0.4c-0.2,0-0.5,0.1-0.7,0.2s-0.4,0.3-0.7,0.6V62h-1.1V53.8z"/>
		<path id="XMLID_341_" d="M250.6,56.6c0.8,0,1.5,0.3,2,0.8s0.8,1.2,0.8,2c0,0.8-0.3,1.4-0.8,1.9s-1.2,0.8-2.1,0.8
			c-0.8,0-1.5-0.3-2-0.8s-0.8-1.2-0.8-2c0-0.8,0.3-1.4,0.8-2S249.8,56.6,250.6,56.6z M250.5,57.5c-0.5,0-0.9,0.2-1.3,0.5
			s-0.5,0.8-0.5,1.3c0,0.5,0.2,0.9,0.5,1.3s0.8,0.5,1.3,0.5c0.5,0,1-0.2,1.3-0.5s0.5-0.8,0.5-1.3c0-0.5-0.2-0.9-0.5-1.3
			S251.1,57.5,250.5,57.5z"/>
		<path id="XMLID_344_" d="M259.4,53.8h1.1V62h-2.3c-0.8,0-1.4-0.3-1.9-0.8s-0.7-1.2-0.7-2c0-0.8,0.2-1.4,0.7-2s1.1-0.8,1.9-0.8
			c0.4,0,0.8,0.1,1.2,0.2V53.8z M259.4,61v-3.4c-0.3-0.2-0.7-0.3-1-0.3c-0.5,0-1,0.2-1.3,0.5s-0.5,0.8-0.5,1.4c0,0.6,0.1,1,0.4,1.3
			c0.2,0.2,0.3,0.3,0.5,0.4s0.5,0.1,1,0.1H259.4z"/>
		<path id="XMLID_347_" d="M199.9,68.1h0.7c-0.5,0.7-0.8,1.3-1.1,1.9s-0.4,1.1-0.5,1.8s-0.2,1.3-0.2,1.9c0,2.1,0.6,4,1.7,5.5h-0.7
			l-0.2-0.2c-0.4-0.5-0.8-1-1-1.3s-0.4-0.8-0.6-1.3c-0.3-0.9-0.5-1.8-0.5-2.7c0-0.9,0.2-1.8,0.5-2.7S199.1,69.1,199.9,68.1z"/>
		<path id="XMLID_349_" d="M207.3,73.8h-3.8c0,0.5,0.2,0.9,0.5,1.2s0.7,0.5,1.2,0.5c0.7,0,1.4-0.2,1.9-0.7v1c-0.3,0.2-0.7,0.4-1,0.5
			s-0.7,0.1-1.1,0.1c-0.6,0-1.1-0.1-1.4-0.4s-0.7-0.6-0.9-1s-0.3-0.9-0.3-1.4c0-0.8,0.2-1.5,0.7-2s1.1-0.8,1.8-0.8
			c0.7,0,1.3,0.3,1.7,0.8s0.6,1.2,0.6,2V73.8z M203.5,73.1h2.7c0-0.4-0.2-0.8-0.4-1s-0.5-0.3-0.9-0.3s-0.7,0.1-0.9,0.3
			S203.6,72.7,203.5,73.1z"/>
		<path id="XMLID_352_" d="M210.4,75.1c0.2,0,0.4,0.1,0.5,0.2s0.2,0.3,0.2,0.5c0,0.2-0.1,0.4-0.2,0.5s-0.3,0.2-0.5,0.2
			c-0.2,0-0.4-0.1-0.5-0.2s-0.2-0.3-0.2-0.5c0-0.2,0.1-0.4,0.2-0.5S210.2,75.1,210.4,75.1z"/>
		<path id="XMLID_354_" d="M213.4,72.8c0-0.6,0.2-1,0.6-1.4s1-0.5,1.7-0.5h2.2v0.8h-1.1c0.2,0.2,0.4,0.4,0.4,0.6s0.1,0.4,0.1,0.6
			c0,0.3-0.1,0.6-0.2,0.8s-0.4,0.5-0.6,0.6s-0.7,0.3-1.2,0.3c-0.4,0.1-0.6,0.2-0.6,0.4c0,0.1,0.1,0.2,0.2,0.3s0.4,0.2,0.8,0.2
			c0.7,0.1,1.1,0.3,1.3,0.3s0.4,0.2,0.5,0.4c0.3,0.3,0.4,0.6,0.4,1c0,0.5-0.2,0.9-0.7,1.2s-1.1,0.5-1.8,0.5c-0.8,0-1.4-0.2-1.8-0.5
			s-0.7-0.7-0.7-1.2c0-0.7,0.5-1.2,1.4-1.4c-0.4-0.2-0.5-0.5-0.5-0.7c0-0.2,0.1-0.3,0.2-0.5s0.4-0.2,0.6-0.3
			C213.8,74.2,213.4,73.6,213.4,72.8z M215.2,76.6c-0.4,0-0.7,0.1-0.9,0.2s-0.3,0.3-0.3,0.6c0,0.6,0.5,0.8,1.5,0.8
			c0.5,0,0.8-0.1,1.1-0.2s0.4-0.3,0.4-0.6c0-0.3-0.2-0.5-0.5-0.6S215.7,76.6,215.2,76.6z M215.4,71.9c-0.3,0-0.5,0.1-0.7,0.3
			s-0.3,0.4-0.3,0.7c0,0.3,0.1,0.5,0.3,0.7s0.5,0.3,0.8,0.3c0.3,0,0.6-0.1,0.8-0.3s0.3-0.4,0.3-0.7c0-0.3-0.1-0.5-0.3-0.7
			S215.7,71.9,215.4,71.9z"/>
		<path id="XMLID_358_" d="M220.6,75.1c0.2,0,0.4,0.1,0.5,0.2s0.2,0.3,0.2,0.5c0,0.2-0.1,0.4-0.2,0.5s-0.3,0.2-0.5,0.2
			c-0.2,0-0.4-0.1-0.5-0.2s-0.2-0.3-0.2-0.5c0-0.2,0.1-0.4,0.2-0.5S220.4,75.1,220.6,75.1z"/>
		<path id="XMLID_360_" d="M227.3,76.4v-8.2h2.8c1.1,0,2,0.2,2.6,0.5s1.2,0.8,1.5,1.5s0.6,1.4,0.6,2.1c0,0.5-0.1,1.1-0.3,1.6
			s-0.5,0.9-0.9,1.3c-0.4,0.4-0.9,0.7-1.4,0.9c-0.3,0.1-0.6,0.2-0.8,0.2s-0.8,0.1-1.5,0.1H227.3z M230,69.2h-1.5v6.1h1.5
			c0.6,0,1,0,1.4-0.1s0.6-0.2,0.8-0.3s0.4-0.3,0.6-0.5c0.6-0.6,0.9-1.3,0.9-2.2c0-0.9-0.3-1.6-0.9-2.2c-0.2-0.2-0.5-0.4-0.8-0.5
			s-0.6-0.2-0.8-0.3S230.5,69.2,230,69.2z"/>
		<path id="XMLID_363_" d="M237.2,71v-0.2c0.2-0.2,0.3-0.3,0.4-0.5s0.1-0.4,0.1-0.7c-0.4-0.1-0.6-0.4-0.6-0.8c0-0.2,0.1-0.4,0.2-0.6
			s0.3-0.2,0.5-0.2c0.2,0,0.4,0.1,0.6,0.3s0.2,0.5,0.2,0.8c0,0.4-0.1,0.8-0.4,1.2S237.6,70.9,237.2,71z"/>
		<path id="XMLID_365_" d="M247.1,68.2h1.2v8.2h-1.2v-3.6h-4.6v3.6h-1.2v-8.2h1.2v3.5h4.6V68.2z"/>
		<path id="XMLID_367_" d="M253.7,71c0.8,0,1.5,0.3,2,0.8s0.8,1.2,0.8,2c0,0.8-0.3,1.4-0.8,1.9s-1.2,0.8-2.1,0.8
			c-0.8,0-1.5-0.3-2-0.8s-0.8-1.2-0.8-2c0-0.8,0.3-1.4,0.8-2S252.9,71,253.7,71z M253.7,71.9c-0.5,0-0.9,0.2-1.3,0.5
			s-0.5,0.8-0.5,1.3c0,0.5,0.2,0.9,0.5,1.3s0.8,0.5,1.3,0.5c0.5,0,1-0.2,1.3-0.5s0.5-0.8,0.5-1.3c0-0.5-0.2-0.9-0.5-1.3
			S254.2,71.9,253.7,71.9z"/>
		<path id="XMLID_370_" d="M260,71v0.7c0.5-0.5,1-0.8,1.6-0.8c0.3,0,0.6,0.1,0.9,0.3s0.5,0.4,0.7,0.7s0.2,0.8,0.2,1.4v3.1h-1.1v-3.1
			c0-0.6-0.1-0.9-0.3-1.2s-0.4-0.4-0.8-0.4c-0.5,0-0.9,0.3-1.3,0.8v3.8H259V71H260z"/>
		<path id="XMLID_372_" d="M269.8,68.2h1.1v8.2h-2.3c-0.8,0-1.4-0.3-1.9-0.8s-0.7-1.2-0.7-2c0-0.8,0.2-1.4,0.7-2s1.1-0.8,1.9-0.8
			c0.4,0,0.8,0.1,1.2,0.2V68.2z M269.8,75.4V72c-0.3-0.2-0.7-0.3-1-0.3c-0.5,0-1,0.2-1.3,0.5s-0.5,0.8-0.5,1.4c0,0.6,0.1,1,0.4,1.3
			c0.2,0.2,0.3,0.3,0.5,0.4s0.5,0.1,1,0.1H269.8z"/>
		<path id="XMLID_375_" d="M272.7,71.8l2-2V71h1.7v1h-1.7v2.6c0,0.6,0.3,0.9,0.8,0.9c0.4,0,0.8-0.1,1.2-0.4v1
			c-0.4,0.2-0.9,0.3-1.3,0.3c-0.5,0-0.9-0.1-1.2-0.4c-0.1-0.1-0.2-0.2-0.3-0.3s-0.1-0.2-0.2-0.4s-0.1-0.5-0.1-1v-2.4h-0.9V71.8z"/>
		<path id="XMLID_377_" d="M278.7,79.1h-0.7c0.5-0.8,0.9-1.4,1.1-1.9s0.4-1.1,0.5-1.8s0.2-1.3,0.2-1.8c0-0.7-0.1-1.3-0.2-2
			s-0.3-1.2-0.6-1.8s-0.6-1.1-1-1.7h0.7l0.2,0.2c0.4,0.5,0.8,0.9,1,1.3s0.4,0.8,0.6,1.3c0.3,0.9,0.5,1.8,0.5,2.7
			c0,0.9-0.2,1.7-0.5,2.5c-0.2,0.4-0.3,0.8-0.6,1.2S279.4,78.3,278.7,79.1z"/>
	</g>
	<g id="XMLID_268_">
		<path id="XMLID_269_" d="M498.3,206.1V198h2.8c1.1,0,2,0.2,2.6,0.5s1.2,0.8,1.5,1.5s0.6,1.4,0.6,2.1c0,0.5-0.1,1.1-0.3,1.6
			s-0.5,0.9-0.9,1.3c-0.4,0.4-0.9,0.7-1.4,0.9c-0.3,0.1-0.6,0.2-0.8,0.2s-0.8,0.1-1.5,0.1H498.3z M500.9,199h-1.5v6.1h1.5
			c0.6,0,1,0,1.4-0.1s0.6-0.2,0.8-0.3s0.4-0.3,0.6-0.5c0.6-0.6,0.9-1.3,0.9-2.2c0-0.9-0.3-1.6-0.9-2.2c-0.2-0.2-0.5-0.4-0.8-0.5
			s-0.6-0.2-0.8-0.3S501.5,199,500.9,199z"/>
		<path id="XMLID_272_" d="M508.9,198.5c0.2,0,0.3,0.1,0.5,0.2s0.2,0.3,0.2,0.4c0,0.2-0.1,0.3-0.2,0.4s-0.3,0.2-0.5,0.2
			c-0.2,0-0.3-0.1-0.4-0.2s-0.2-0.3-0.2-0.4c0-0.2,0.1-0.3,0.2-0.4S508.7,198.5,508.9,198.5z M508.4,200.8h1.1v5.4h-1.1V200.8z"/>
		<path id="XMLID_275_" d="M511.9,205.8v-1.1c0.3,0.2,0.6,0.4,0.9,0.5s0.6,0.2,0.8,0.2c0.2,0,0.4-0.1,0.6-0.2s0.2-0.2,0.2-0.4
			c0-0.2-0.1-0.3-0.2-0.4s-0.3-0.3-0.7-0.4c-0.7-0.4-1.1-0.7-1.4-1s-0.3-0.6-0.3-0.9c0-0.4,0.2-0.8,0.5-1s0.7-0.4,1.2-0.4
			c0.5,0,1.1,0.1,1.6,0.4v1.1c-0.6-0.4-1.2-0.6-1.6-0.6c-0.2,0-0.4,0-0.5,0.1c-0.1,0.1-0.2,0.2-0.2,0.3c0,0.1,0.1,0.2,0.2,0.4
			c0.1,0.1,0.3,0.3,0.6,0.4l0.4,0.2c0.9,0.5,1.3,1.1,1.3,1.7c0,0.4-0.2,0.8-0.5,1.1c-0.3,0.3-0.8,0.4-1.3,0.4c-0.3,0-0.6,0-0.9-0.1
			S512.3,206,511.9,205.8z"/>
		<path id="XMLID_277_" d="M517.9,208.9v-8.1h1.9c1,0,1.7,0.2,2.2,0.7s0.8,1.1,0.8,2c0,0.8-0.3,1.5-0.8,2s-1.1,0.8-1.9,0.8
			c-0.3,0-0.7-0.1-1.1-0.2v2.9H517.9z M519.8,201.8H519v3.3c0.3,0.2,0.7,0.3,1,0.3c0.5,0,0.9-0.2,1.2-0.5s0.5-0.8,0.5-1.3
			c0-0.4-0.1-0.7-0.2-0.9c-0.1-0.3-0.4-0.5-0.6-0.6C520.7,201.8,520.3,201.8,519.8,201.8z"/>
		<path id="XMLID_280_" d="M526.3,200.8v1.2l0.1-0.1c0.5-0.8,1-1.2,1.5-1.2c0.4,0,0.8,0.2,1.3,0.6l-0.6,0.9c-0.4-0.4-0.7-0.5-1-0.5
			c-0.3,0-0.6,0.2-0.9,0.5s-0.4,0.7-0.4,1.2v2.8h-1.1v-5.4H526.3z"/>
		<path id="XMLID_282_" d="M533.4,200.8c0.8,0,1.5,0.3,2,0.8s0.8,1.2,0.8,2c0,0.8-0.3,1.4-0.8,1.9s-1.2,0.8-2.1,0.8
			c-0.8,0-1.5-0.3-2-0.8s-0.8-1.2-0.8-2c0-0.8,0.3-1.4,0.8-2S532.6,200.8,533.4,200.8z M533.4,201.7c-0.5,0-0.9,0.2-1.3,0.5
			s-0.5,0.8-0.5,1.3c0,0.5,0.2,0.9,0.5,1.3s0.8,0.5,1.3,0.5c0.5,0,1-0.2,1.3-0.5s0.5-0.8,0.5-1.3c0-0.5-0.2-0.9-0.5-1.3
			S533.9,201.7,533.4,201.7z"/>
		<path id="XMLID_285_" d="M538.6,208.9v-8.1h1.9c1,0,1.7,0.2,2.2,0.7s0.8,1.1,0.8,2c0,0.8-0.3,1.5-0.8,2s-1.1,0.8-1.9,0.8
			c-0.3,0-0.7-0.1-1.1-0.2v2.9H538.6z M540.4,201.8h-0.8v3.3c0.3,0.2,0.7,0.3,1,0.3c0.5,0,0.9-0.2,1.2-0.5s0.5-0.8,0.5-1.3
			c0-0.4-0.1-0.7-0.2-0.9c-0.1-0.3-0.4-0.5-0.6-0.6C541.3,201.8,540.9,201.8,540.4,201.8z"/>
		<path id="XMLID_288_" d="M548.5,200.8c0.8,0,1.5,0.3,2,0.8s0.8,1.2,0.8,2c0,0.8-0.3,1.4-0.8,1.9s-1.2,0.8-2.1,0.8
			c-0.8,0-1.5-0.3-2-0.8s-0.8-1.2-0.8-2c0-0.8,0.3-1.4,0.8-2S547.6,200.8,548.5,200.8z M548.4,201.7c-0.5,0-0.9,0.2-1.3,0.5
			s-0.5,0.8-0.5,1.3c0,0.5,0.2,0.9,0.5,1.3s0.8,0.5,1.3,0.5c0.5,0,1-0.2,1.3-0.5s0.5-0.8,0.5-1.3c0-0.5-0.2-0.9-0.5-1.3
			S548.9,201.7,548.4,201.7z"/>
		<path id="XMLID_291_" d="M554.8,200.8v1.2l0.1-0.1c0.5-0.8,1-1.2,1.5-1.2c0.4,0,0.8,0.2,1.3,0.6l-0.6,0.9c-0.4-0.4-0.7-0.5-1-0.5
			c-0.3,0-0.6,0.2-0.9,0.5s-0.4,0.7-0.4,1.2v2.8h-1.1v-5.4H554.8z"/>
		<path id="XMLID_293_" d="M559.1,201.6l2-2v1.1h1.7v1h-1.7v2.6c0,0.6,0.3,0.9,0.8,0.9c0.4,0,0.8-0.1,1.2-0.4v1
			c-0.4,0.2-0.9,0.3-1.3,0.3c-0.5,0-0.9-0.1-1.2-0.4c-0.1-0.1-0.2-0.2-0.3-0.3s-0.1-0.2-0.2-0.4s-0.1-0.5-0.1-1v-2.4h-0.9V201.6z"/>
		<path id="XMLID_295_" d="M565.6,198.5c0.2,0,0.3,0.1,0.5,0.2s0.2,0.3,0.2,0.4c0,0.2-0.1,0.3-0.2,0.4s-0.3,0.2-0.5,0.2
			c-0.2,0-0.3-0.1-0.4-0.2s-0.2-0.3-0.2-0.4c0-0.2,0.1-0.3,0.2-0.4S565.5,198.5,565.6,198.5z M565.1,200.8h1.1v5.4h-1.1V200.8z"/>
		<path id="XMLID_298_" d="M571.5,200.8c0.8,0,1.5,0.3,2,0.8s0.8,1.2,0.8,2c0,0.8-0.3,1.4-0.8,1.9s-1.2,0.8-2.1,0.8
			c-0.8,0-1.5-0.3-2-0.8s-0.8-1.2-0.8-2c0-0.8,0.3-1.4,0.8-2S570.7,200.8,571.5,200.8z M571.4,201.7c-0.5,0-0.9,0.2-1.3,0.5
			s-0.5,0.8-0.5,1.3c0,0.5,0.2,0.9,0.5,1.3s0.8,0.5,1.3,0.5c0.5,0,1-0.2,1.3-0.5s0.5-0.8,0.5-1.3c0-0.5-0.2-0.9-0.5-1.3
			S572,201.7,571.4,201.7z"/>
		<path id="XMLID_301_" d="M577.8,200.8v0.7c0.5-0.5,1-0.8,1.6-0.8c0.3,0,0.6,0.1,0.9,0.3s0.5,0.4,0.7,0.7s0.2,0.8,0.2,1.4v3.1h-1.1
			v-3.1c0-0.6-0.1-0.9-0.3-1.2s-0.4-0.4-0.8-0.4c-0.5,0-0.9,0.3-1.3,0.8v3.8h-1.1v-5.4H577.8z"/>
		<path id="XMLID_303_" d="M587.3,202.9v2.3c0,0.2,0.1,0.3,0.2,0.3c0.1,0,0.3-0.1,0.6-0.3v0.7c-0.2,0.2-0.4,0.3-0.6,0.3
			s-0.3,0.1-0.5,0.1c-0.5,0-0.7-0.2-0.8-0.5c-0.5,0.4-0.9,0.5-1.4,0.5c-0.4,0-0.7-0.1-0.9-0.4s-0.4-0.6-0.4-0.9
			c0-0.3,0.1-0.6,0.4-0.9s0.6-0.5,1-0.6l1.4-0.5v-0.3c0-0.6-0.3-1-1-1c-0.6,0-1.1,0.3-1.7,0.9v-1.2c0.4-0.5,1-0.7,1.8-0.7
			c0.6,0,1,0.2,1.4,0.5c0.1,0.1,0.2,0.2,0.3,0.4s0.2,0.3,0.2,0.5S587.3,202.5,587.3,202.9z M586.3,205.1v-1.6l-0.7,0.3
			c-0.4,0.1-0.6,0.3-0.8,0.4s-0.2,0.3-0.2,0.5c0,0.2,0.1,0.4,0.2,0.5s0.3,0.2,0.6,0.2C585.7,205.5,586,205.4,586.3,205.1z"/>
		<path id="XMLID_306_" d="M590.3,198h1.1v8.2h-1.1V198z"/>
		<path id="XMLID_308_" d="M594.6,198.5c0.2,0,0.3,0.1,0.5,0.2s0.2,0.3,0.2,0.4c0,0.2-0.1,0.3-0.2,0.4s-0.3,0.2-0.5,0.2
			c-0.2,0-0.3-0.1-0.4-0.2s-0.2-0.3-0.2-0.4c0-0.2,0.1-0.3,0.2-0.4S594.5,198.5,594.6,198.5z M594.1,200.8h1.1v5.4h-1.1V200.8z"/>
		<path id="XMLID_311_" d="M597.2,201.6l2-2v1.1h1.7v1h-1.7v2.6c0,0.6,0.3,0.9,0.8,0.9c0.4,0,0.8-0.1,1.2-0.4v1
			c-0.4,0.2-0.9,0.3-1.3,0.3c-0.5,0-0.9-0.1-1.2-0.4c-0.1-0.1-0.2-0.2-0.3-0.3s-0.1-0.2-0.2-0.4s-0.1-0.5-0.1-1v-2.4h-0.9V201.6z"/>
		<path id="XMLID_313_" d="M606.4,200.8h1.2l-3.8,8.1h-1.2l1.8-3.9l-2.1-4.2h1.2l1.5,3L606.4,200.8z"/>
	</g>
	<g id="XMLID_224_">
		<path id="XMLID_225_" d="M30.4,206.1V198h2.8c1.1,0,2,0.2,2.6,0.5s1.2,0.8,1.5,1.5s0.6,1.4,0.6,2.1c0,0.5-0.1,1.1-0.3,1.6
			s-0.5,0.9-0.9,1.3c-0.4,0.4-0.9,0.7-1.4,0.9c-0.3,0.1-0.6,0.2-0.8,0.2s-0.8,0.1-1.5,0.1H30.4z M33,199h-1.5v6.1h1.5
			c0.6,0,1,0,1.4-0.1s0.6-0.2,0.8-0.3s0.4-0.3,0.6-0.5c0.6-0.6,0.9-1.3,0.9-2.2c0-0.9-0.3-1.6-0.9-2.2c-0.2-0.2-0.5-0.4-0.8-0.5
			s-0.6-0.2-0.8-0.3S33.6,199,33,199z"/>
		<path id="XMLID_228_" d="M41,198.5c0.2,0,0.3,0.1,0.5,0.2s0.2,0.3,0.2,0.4c0,0.2-0.1,0.3-0.2,0.4s-0.3,0.2-0.5,0.2
			c-0.2,0-0.3-0.1-0.4-0.2s-0.2-0.3-0.2-0.4c0-0.2,0.1-0.3,0.2-0.4S40.8,198.5,41,198.5z M40.5,200.8h1.1v5.4h-1.1V200.8z"/>
		<path id="XMLID_231_" d="M44,205.8v-1.1c0.3,0.2,0.6,0.4,0.9,0.5s0.6,0.2,0.8,0.2c0.2,0,0.4-0.1,0.6-0.2s0.2-0.2,0.2-0.4
			c0-0.2-0.1-0.3-0.2-0.4s-0.3-0.3-0.7-0.4c-0.7-0.4-1.1-0.7-1.4-1s-0.3-0.6-0.3-0.9c0-0.4,0.2-0.8,0.5-1s0.7-0.4,1.2-0.4
			c0.5,0,1.1,0.1,1.6,0.4v1.1c-0.6-0.4-1.2-0.6-1.6-0.6c-0.2,0-0.4,0-0.5,0.1c-0.1,0.1-0.2,0.2-0.2,0.3c0,0.1,0.1,0.2,0.2,0.4
			c0.1,0.1,0.3,0.3,0.6,0.4l0.4,0.2c0.9,0.5,1.3,1.1,1.3,1.7c0,0.4-0.2,0.8-0.5,1.1c-0.3,0.3-0.8,0.4-1.3,0.4c-0.3,0-0.6,0-0.9-0.1
			S44.4,206,44,205.8z"/>
		<path id="XMLID_233_" d="M49.3,201.6l2-2v1.1H53v1h-1.7v2.6c0,0.6,0.3,0.9,0.8,0.9c0.4,0,0.8-0.1,1.2-0.4v1
			c-0.4,0.2-0.9,0.3-1.3,0.3c-0.5,0-0.9-0.1-1.2-0.4c-0.1-0.1-0.2-0.2-0.3-0.3s-0.1-0.2-0.2-0.4s-0.1-0.5-0.1-1v-2.4h-0.9V201.6z"/>
		<path id="XMLID_235_" d="M56.4,200.8v1.2l0.1-0.1c0.5-0.8,1-1.2,1.5-1.2c0.4,0,0.8,0.2,1.3,0.6l-0.6,0.9c-0.4-0.4-0.7-0.5-1-0.5
			c-0.3,0-0.6,0.2-0.9,0.5s-0.4,0.7-0.4,1.2v2.8h-1.1v-5.4H56.4z"/>
		<path id="XMLID_237_" d="M61.8,198.5c0.2,0,0.3,0.1,0.5,0.2s0.2,0.3,0.2,0.4c0,0.2-0.1,0.3-0.2,0.4s-0.3,0.2-0.5,0.2
			c-0.2,0-0.3-0.1-0.4-0.2s-0.2-0.3-0.2-0.4c0-0.2,0.1-0.3,0.2-0.4S61.6,198.5,61.8,198.5z M61.3,200.8h1.1v5.4h-1.1V200.8z"/>
		<path id="XMLID_240_" d="M69.1,204.9v1.1c-0.5,0.2-1.1,0.3-1.6,0.3c-0.8,0-1.5-0.3-2-0.8s-0.8-1.2-0.8-2c0-0.8,0.2-1.5,0.7-2.1
			s1.1-0.8,1.9-0.8c0.3,0,0.5,0,0.7,0.1s0.5,0.2,0.8,0.3v1.1c-0.5-0.3-1-0.5-1.5-0.5c-0.5,0-0.9,0.2-1.2,0.5s-0.5,0.8-0.5,1.3
			c0,0.6,0.2,1,0.5,1.3s0.8,0.5,1.4,0.5C68.1,205.3,68.6,205.1,69.1,204.9z"/>
		<path id="XMLID_242_" d="M70.8,201.6l2-2v1.1h1.7v1h-1.7v2.6c0,0.6,0.3,0.9,0.8,0.9c0.4,0,0.8-0.1,1.2-0.4v1
			c-0.4,0.2-0.9,0.3-1.3,0.3c-0.5,0-0.9-0.1-1.2-0.4c-0.1-0.1-0.2-0.2-0.3-0.3s-0.1-0.2-0.2-0.4s-0.1-0.5-0.1-1v-2.4h-0.9V201.6z"/>
		<path id="XMLID_244_" d="M85.7,202.2v3.9h-1.1v-3c0-0.6-0.1-1-0.2-1.3s-0.4-0.4-0.8-0.4c-0.2,0-0.4,0.1-0.6,0.2s-0.4,0.3-0.6,0.5
			v3.9h-1.1v-5.4h1.1v0.7c0.5-0.5,1.1-0.8,1.6-0.8c0.7,0,1.2,0.3,1.6,1c0.6-0.7,1.2-1,1.8-1c0.5,0,1,0.2,1.3,0.6s0.5,1,0.5,1.8v3.2
			H88V203c0-0.4-0.1-0.8-0.3-1s-0.4-0.4-0.8-0.4C86.5,201.6,86.1,201.8,85.7,202.2z"/>
		<path id="XMLID_246_" d="M95.1,202.9v2.3c0,0.2,0.1,0.3,0.2,0.3c0.1,0,0.3-0.1,0.6-0.3v0.7c-0.2,0.2-0.4,0.3-0.6,0.3
			s-0.3,0.1-0.5,0.1c-0.5,0-0.7-0.2-0.8-0.5c-0.5,0.4-0.9,0.5-1.4,0.5c-0.4,0-0.7-0.1-0.9-0.4s-0.4-0.6-0.4-0.9
			c0-0.3,0.1-0.6,0.4-0.9s0.6-0.5,1-0.6l1.4-0.5v-0.3c0-0.6-0.3-1-1-1c-0.6,0-1.1,0.3-1.7,0.9v-1.2c0.4-0.5,1-0.7,1.8-0.7
			c0.6,0,1,0.2,1.4,0.5c0.1,0.1,0.2,0.2,0.3,0.4s0.2,0.3,0.2,0.5S95.1,202.5,95.1,202.9z M94,205.1v-1.6l-0.7,0.3
			c-0.4,0.1-0.6,0.3-0.8,0.4s-0.2,0.3-0.2,0.5c0,0.2,0.1,0.4,0.2,0.5s0.3,0.2,0.6,0.2C93.4,205.5,93.8,205.4,94,205.1z"/>
		<path id="XMLID_249_" d="M97.8,202.6c0-0.6,0.2-1,0.6-1.4s1-0.5,1.7-0.5h2.2v0.8h-1.1c0.2,0.2,0.4,0.4,0.4,0.6s0.1,0.4,0.1,0.6
			c0,0.3-0.1,0.6-0.2,0.8s-0.4,0.5-0.6,0.6s-0.7,0.3-1.2,0.3c-0.4,0.1-0.6,0.2-0.6,0.4c0,0.1,0.1,0.2,0.2,0.3s0.4,0.2,0.8,0.2
			c0.7,0.1,1.1,0.3,1.3,0.3s0.4,0.2,0.5,0.4c0.3,0.3,0.4,0.6,0.4,1c0,0.5-0.2,0.9-0.7,1.2s-1.1,0.5-1.8,0.5c-0.8,0-1.4-0.2-1.8-0.5
			s-0.7-0.7-0.7-1.2c0-0.7,0.5-1.2,1.4-1.4c-0.4-0.2-0.5-0.5-0.5-0.7c0-0.2,0.1-0.3,0.2-0.5s0.4-0.2,0.6-0.3
			C98.2,204,97.8,203.4,97.8,202.6z M99.5,206.4c-0.4,0-0.7,0.1-0.9,0.2s-0.3,0.3-0.3,0.6c0,0.6,0.5,0.8,1.5,0.8
			c0.5,0,0.8-0.1,1.1-0.2s0.4-0.3,0.4-0.6c0-0.3-0.2-0.5-0.5-0.6S100,206.4,99.5,206.4z M99.8,201.7c-0.3,0-0.5,0.1-0.7,0.3
			s-0.3,0.4-0.3,0.7c0,0.3,0.1,0.5,0.3,0.7s0.5,0.3,0.8,0.3c0.3,0,0.6-0.1,0.8-0.3s0.3-0.4,0.3-0.7c0-0.3-0.1-0.5-0.3-0.7
			S100.1,201.7,99.8,201.7z"/>
		<path id="XMLID_253_" d="M105.4,200.8v0.7c0.5-0.5,1-0.8,1.6-0.8c0.3,0,0.6,0.1,0.9,0.3s0.5,0.4,0.7,0.7s0.2,0.8,0.2,1.4v3.1h-1.1
			v-3.1c0-0.6-0.1-0.9-0.3-1.2s-0.4-0.4-0.8-0.4c-0.5,0-0.9,0.3-1.3,0.8v3.8h-1.1v-5.4H105.4z"/>
		<path id="XMLID_255_" d="M112.1,198.5c0.2,0,0.3,0.1,0.5,0.2s0.2,0.3,0.2,0.4c0,0.2-0.1,0.3-0.2,0.4s-0.3,0.2-0.5,0.2
			c-0.2,0-0.3-0.1-0.4-0.2s-0.2-0.3-0.2-0.4c0-0.2,0.1-0.3,0.2-0.4S111.9,198.5,112.1,198.5z M111.6,200.8h1.1v5.4h-1.1V200.8z"/>
		<path id="XMLID_258_" d="M114.6,201.6l2-2v1.1h1.7v1h-1.7v2.6c0,0.6,0.3,0.9,0.8,0.9c0.4,0,0.8-0.1,1.2-0.4v1
			c-0.4,0.2-0.9,0.3-1.3,0.3c-0.5,0-0.9-0.1-1.2-0.4c-0.1-0.1-0.2-0.2-0.3-0.3s-0.1-0.2-0.2-0.4s-0.1-0.5-0.1-1v-2.4h-0.9V201.6z"/>
		<path id="XMLID_260_" d="M124,206.2v-0.7c-0.2,0.2-0.5,0.4-0.8,0.6s-0.6,0.2-0.9,0.2c-0.3,0-0.7-0.1-0.9-0.3s-0.5-0.4-0.7-0.7
			s-0.2-0.8-0.2-1.5v-3.1h1.1v3.1c0,0.6,0.1,1,0.2,1.2s0.4,0.3,0.9,0.3c0.5,0,0.9-0.2,1.3-0.7v-3.8h1.1v5.4H124z"/>
		<path id="XMLID_262_" d="M131.4,198h1.1v8.2h-2.3c-0.8,0-1.4-0.3-1.9-0.8s-0.7-1.2-0.7-2c0-0.8,0.2-1.4,0.7-2s1.1-0.8,1.9-0.8
			c0.4,0,0.8,0.1,1.2,0.2V198z M131.4,205.2v-3.4c-0.3-0.2-0.7-0.3-1-0.3c-0.5,0-1,0.2-1.3,0.5s-0.5,0.8-0.5,1.4
			c0,0.6,0.1,1,0.4,1.3c0.2,0.2,0.3,0.3,0.5,0.4s0.5,0.1,1,0.1H131.4z"/>
		<path id="XMLID_265_" d="M139.7,203.6h-3.8c0,0.5,0.2,0.9,0.5,1.2s0.7,0.5,1.2,0.5c0.7,0,1.4-0.2,1.9-0.7v1
			c-0.3,0.2-0.7,0.4-1,0.5s-0.7,0.1-1.1,0.1c-0.6,0-1.1-0.1-1.4-0.4s-0.7-0.6-0.9-1s-0.3-0.9-0.3-1.4c0-0.8,0.2-1.5,0.7-2
			s1.1-0.8,1.8-0.8c0.7,0,1.3,0.3,1.7,0.8s0.6,1.2,0.6,2V203.6z M135.9,202.9h2.7c0-0.4-0.2-0.8-0.4-1s-0.5-0.3-0.9-0.3
			s-0.7,0.1-0.9,0.3S136,202.5,135.9,202.9z"/>
	</g>
</g>
<g id="Warstwa_5">
	<g id="XMLID_98_">
		<g id="XMLID_106_">
			<line id="XMLID_109_" class="st0" x1="239.3" y1="222.6" x2="239.3" y2="277.8"/>
			<g id="XMLID_107_">
				<polygon id="XMLID_108_" points="234.3,224.1 239.3,215.4 244.3,224.1 				"/>
			</g>
		</g>
	</g>
	<circle id="XMLID_115_" class="st1" cx="239.9" cy="351.5" r="56.7"/>
	<g id="XMLID_188_">
		<path id="XMLID_189_" d="M220.3,339.4h4.4v1h-3.2v2.3h3.2v1h-3.2v3.8h-1.2V339.4z"/>
		<path id="XMLID_191_" d="M229.4,342.2c0.8,0,1.5,0.3,2,0.8s0.8,1.2,0.8,2c0,0.8-0.3,1.4-0.8,1.9s-1.2,0.8-2.1,0.8
			c-0.8,0-1.5-0.3-2-0.8s-0.8-1.2-0.8-2c0-0.8,0.3-1.4,0.8-2S228.6,342.2,229.4,342.2z M229.3,343.2c-0.5,0-0.9,0.2-1.3,0.5
			s-0.5,0.8-0.5,1.3c0,0.5,0.2,0.9,0.5,1.3s0.8,0.5,1.3,0.5c0.5,0,1-0.2,1.3-0.5s0.5-0.8,0.5-1.3c0-0.5-0.2-0.9-0.5-1.3
			S229.9,343.2,229.3,343.2z"/>
		<path id="XMLID_194_" d="M235.8,342.2v1.2l0.1-0.1c0.5-0.8,1-1.2,1.5-1.2c0.4,0,0.8,0.2,1.3,0.6l-0.6,0.9c-0.4-0.4-0.7-0.5-1-0.5
			c-0.3,0-0.6,0.2-0.9,0.5s-0.4,0.7-0.4,1.2v2.8h-1.1v-5.4H235.8z"/>
		<path id="XMLID_196_" d="M245,343.7v3.9h-1.1v-3c0-0.6-0.1-1-0.2-1.3s-0.4-0.4-0.8-0.4c-0.2,0-0.4,0.1-0.6,0.2s-0.4,0.3-0.6,0.5
			v3.9h-1.1v-5.4h1.1v0.7c0.5-0.5,1.1-0.8,1.6-0.8c0.7,0,1.2,0.3,1.6,1c0.6-0.7,1.2-1,1.8-1c0.5,0,1,0.2,1.3,0.6s0.5,1,0.5,1.8v3.2
			h-1.1v-3.2c0-0.4-0.1-0.8-0.3-1s-0.4-0.4-0.8-0.4C245.8,343.1,245.4,343.3,245,343.7z"/>
		<path id="XMLID_198_" d="M254.4,344.4v2.3c0,0.2,0.1,0.3,0.2,0.3c0.1,0,0.3-0.1,0.6-0.3v0.7c-0.2,0.2-0.4,0.3-0.6,0.3
			s-0.3,0.1-0.5,0.1c-0.5,0-0.7-0.2-0.8-0.5c-0.5,0.4-0.9,0.5-1.4,0.5c-0.4,0-0.7-0.1-0.9-0.4s-0.4-0.6-0.4-0.9
			c0-0.3,0.1-0.6,0.4-0.9s0.6-0.5,1-0.6l1.4-0.5v-0.3c0-0.6-0.3-1-1-1c-0.6,0-1.1,0.3-1.7,0.9v-1.2c0.4-0.5,1-0.7,1.8-0.7
			c0.6,0,1,0.2,1.4,0.5c0.1,0.1,0.2,0.2,0.3,0.4s0.2,0.3,0.2,0.5S254.4,343.9,254.4,344.4z M253.4,346.6V345l-0.7,0.3
			c-0.4,0.1-0.6,0.3-0.8,0.4s-0.2,0.3-0.2,0.5c0,0.2,0.1,0.4,0.2,0.5s0.3,0.2,0.6,0.2C252.8,347,253.1,346.8,253.4,346.6z"/>
		<path id="XMLID_201_" d="M257.4,339.4h1.1v8.2h-1.1V339.4z"/>
		<path id="XMLID_203_" d="M211.4,357.5l2-2v1.1h1.7v1h-1.7v2.6c0,0.6,0.3,0.9,0.8,0.9c0.4,0,0.8-0.1,1.2-0.4v1
			c-0.4,0.2-0.9,0.3-1.3,0.3c-0.5,0-0.9-0.1-1.2-0.4c-0.1-0.1-0.2-0.2-0.3-0.3s-0.1-0.2-0.2-0.4s-0.1-0.5-0.1-1v-2.4h-0.9V357.5z"/>
		<path id="XMLID_205_" d="M217.3,353.8h1.1v3.5c0.4-0.5,1-0.8,1.7-0.8c0.4,0,0.7,0.1,1,0.3s0.5,0.4,0.6,0.7s0.2,0.8,0.2,1.4v3.1
			h-1.1v-3.3c0-0.4-0.1-0.7-0.3-1s-0.4-0.4-0.8-0.4c-0.2,0-0.5,0.1-0.7,0.2s-0.4,0.3-0.7,0.6v3.9h-1.1V353.8z"/>
		<path id="XMLID_207_" d="M225.7,356.6v1.2l0.1-0.1c0.5-0.8,1-1.2,1.5-1.2c0.4,0,0.8,0.2,1.3,0.6l-0.6,0.9c-0.4-0.4-0.7-0.5-1-0.5
			c-0.3,0-0.6,0.2-0.9,0.5s-0.4,0.7-0.4,1.2v2.8h-1.1v-5.4H225.7z"/>
		<path id="XMLID_209_" d="M234.9,359.4h-3.8c0,0.5,0.2,0.9,0.5,1.2s0.7,0.5,1.2,0.5c0.7,0,1.4-0.2,1.9-0.7v1
			c-0.3,0.2-0.7,0.4-1,0.5s-0.7,0.1-1.1,0.1c-0.6,0-1.1-0.1-1.4-0.4s-0.7-0.6-0.9-1s-0.3-0.9-0.3-1.4c0-0.8,0.2-1.5,0.7-2
			s1.1-0.8,1.8-0.8c0.7,0,1.3,0.3,1.7,0.8s0.6,1.2,0.6,2V359.4z M231.1,358.8h2.7c0-0.4-0.2-0.8-0.4-1s-0.5-0.3-0.9-0.3
			s-0.7,0.1-0.9,0.3S231.2,358.4,231.1,358.8z"/>
		<path id="XMLID_212_" d="M237,361.6v-1.1c0.3,0.2,0.6,0.4,0.9,0.5s0.6,0.2,0.8,0.2c0.2,0,0.4-0.1,0.6-0.2s0.2-0.2,0.2-0.4
			c0-0.2-0.1-0.3-0.2-0.4s-0.3-0.3-0.7-0.4c-0.7-0.4-1.1-0.7-1.4-1s-0.3-0.6-0.3-0.9c0-0.4,0.2-0.8,0.5-1s0.7-0.4,1.2-0.4
			c0.5,0,1.1,0.1,1.6,0.4v1.1c-0.6-0.4-1.2-0.6-1.6-0.6c-0.2,0-0.4,0-0.5,0.1s-0.2,0.2-0.2,0.3c0,0.1,0.1,0.2,0.2,0.4
			c0.1,0.1,0.3,0.3,0.6,0.4l0.4,0.2c0.9,0.5,1.3,1.1,1.3,1.7c0,0.4-0.2,0.8-0.5,1.1s-0.8,0.4-1.3,0.4c-0.3,0-0.6,0-0.9-0.1
			S237.3,361.8,237,361.6z"/>
		<path id="XMLID_214_" d="M243,353.8h1.1v3.5c0.4-0.5,1-0.8,1.7-0.8c0.4,0,0.7,0.1,1,0.3s0.5,0.4,0.6,0.7s0.2,0.8,0.2,1.4v3.1h-1.1
			v-3.3c0-0.4-0.1-0.7-0.3-1s-0.4-0.4-0.8-0.4c-0.2,0-0.5,0.1-0.7,0.2s-0.4,0.3-0.7,0.6v3.9H243V353.8z"/>
		<path id="XMLID_216_" d="M252.8,356.6c0.8,0,1.5,0.3,2,0.8s0.8,1.2,0.8,2c0,0.8-0.3,1.4-0.8,1.9s-1.2,0.8-2.1,0.8
			c-0.8,0-1.5-0.3-2-0.8s-0.8-1.2-0.8-2c0-0.8,0.3-1.4,0.8-2S252,356.6,252.8,356.6z M252.8,357.6c-0.5,0-0.9,0.2-1.3,0.5
			s-0.5,0.8-0.5,1.3c0,0.5,0.2,0.9,0.5,1.3s0.8,0.5,1.3,0.5c0.5,0,1-0.2,1.3-0.5s0.5-0.8,0.5-1.3c0-0.5-0.2-0.9-0.5-1.3
			S253.3,357.6,252.8,357.6z"/>
		<path id="XMLID_219_" d="M258.1,353.8h1.1v8.2h-1.1V353.8z"/>
		<path id="XMLID_221_" d="M265.5,353.8h1.1v8.2h-2.3c-0.8,0-1.4-0.3-1.9-0.8s-0.7-1.2-0.7-2c0-0.8,0.2-1.4,0.7-2s1.1-0.8,1.9-0.8
			c0.4,0,0.8,0.1,1.2,0.2V353.8z M265.5,361.1v-3.4c-0.3-0.2-0.7-0.3-1-0.3c-0.5,0-1,0.2-1.3,0.5s-0.5,0.8-0.5,1.4
			c0,0.6,0.1,1,0.4,1.3c0.2,0.2,0.3,0.3,0.5,0.4s0.5,0.1,1,0.1H265.5z"/>
	</g>
</g>
<g id="Warstwa_6">
	<g id="XMLID_11_">
		<rect id="XMLID_9_" x="513.6" y="47.3" class="st9" width="124.7" height="22.7"/>
		<g id="XMLID_127_">
			<path id="XMLID_128_" d="M526.3,62v-8.2h2.8c1.1,0,2,0.2,2.6,0.5s1.2,0.8,1.5,1.5s0.6,1.4,0.6,2.1c0,0.5-0.1,1.1-0.3,1.6
				s-0.5,0.9-0.9,1.3c-0.4,0.4-0.9,0.7-1.4,0.9c-0.3,0.1-0.6,0.2-0.8,0.2s-0.8,0.1-1.5,0.1H526.3z M528.9,54.8h-1.5v6.1h1.5
				c0.6,0,1,0,1.4-0.1s0.6-0.2,0.8-0.3s0.4-0.3,0.6-0.5c0.6-0.6,0.9-1.3,0.9-2.2c0-0.9-0.3-1.6-0.9-2.2c-0.2-0.2-0.5-0.4-0.8-0.5
				s-0.6-0.2-0.8-0.3S529.5,54.8,528.9,54.8z"/>
			<path id="XMLID_131_" d="M535.7,54.3c0.2,0,0.3,0.1,0.5,0.2s0.2,0.3,0.2,0.4c0,0.2-0.1,0.3-0.2,0.4s-0.3,0.2-0.5,0.2
				c-0.2,0-0.3-0.1-0.4-0.2s-0.2-0.3-0.2-0.4c0-0.2,0.1-0.3,0.2-0.4S535.5,54.3,535.7,54.3z M535.1,56.6h1.1V62h-1.1V56.6z"/>
			<path id="XMLID_134_" d="M537.5,61.6v-1.1c0.3,0.2,0.6,0.4,0.9,0.5s0.6,0.2,0.8,0.2c0.2,0,0.4-0.1,0.6-0.2s0.2-0.2,0.2-0.4
				c0-0.2-0.1-0.3-0.2-0.4s-0.3-0.3-0.7-0.4c-0.7-0.4-1.1-0.7-1.4-1s-0.3-0.6-0.3-0.9c0-0.4,0.2-0.8,0.5-1s0.7-0.4,1.2-0.4
				c0.5,0,1.1,0.1,1.6,0.4V58c-0.6-0.4-1.2-0.6-1.6-0.6c-0.2,0-0.4,0-0.5,0.1c-0.1,0.1-0.2,0.2-0.2,0.3c0,0.1,0.1,0.2,0.2,0.4
				c0.1,0.1,0.3,0.3,0.6,0.4l0.4,0.2c0.9,0.5,1.3,1.1,1.3,1.7c0,0.4-0.2,0.8-0.5,1.1c-0.3,0.3-0.8,0.4-1.3,0.4c-0.3,0-0.6,0-0.9-0.1
				S537.9,61.8,537.5,61.6z"/>
			<path id="XMLID_144_" d="M541.6,57.4l2-2v1.1h1.7v1h-1.7v2.6c0,0.6,0.3,0.9,0.8,0.9c0.4,0,0.8-0.1,1.2-0.4v1
				c-0.4,0.2-0.9,0.3-1.3,0.3c-0.5,0-0.9-0.1-1.2-0.4c-0.1-0.1-0.2-0.2-0.3-0.3s-0.1-0.2-0.2-0.4s-0.1-0.5-0.1-1v-2.4h-0.9V57.4z"/>
			<path id="XMLID_146_" d="M547.5,56.6v1.2l0.1-0.1c0.5-0.8,1-1.2,1.5-1.2c0.4,0,0.8,0.2,1.3,0.6l-0.6,0.9c-0.4-0.4-0.7-0.5-1-0.5
				c-0.3,0-0.6,0.2-0.9,0.5s-0.4,0.7-0.4,1.2V62h-1.1v-5.4H547.5z"/>
			<path id="XMLID_148_" d="M551.7,54.3c0.2,0,0.3,0.1,0.5,0.2s0.2,0.3,0.2,0.4c0,0.2-0.1,0.3-0.2,0.4s-0.3,0.2-0.5,0.2
				c-0.2,0-0.3-0.1-0.4-0.2s-0.2-0.3-0.2-0.4c0-0.2,0.1-0.3,0.2-0.4S551.5,54.3,551.7,54.3z M551.1,56.6h1.1V62h-1.1V56.6z"/>
			<path id="XMLID_156_" d="M553.7,53.8h1.1V57c0.5-0.3,1-0.5,1.5-0.5c0.7,0,1.2,0.3,1.7,0.8s0.7,1.2,0.7,2c0,0.9-0.3,1.6-0.8,2.1
				s-1.2,0.8-2.1,0.8c-0.3,0-0.7,0-1.1-0.1s-0.7-0.2-0.9-0.3V53.8z M554.8,58v2.9c0.4,0.1,0.7,0.2,1.1,0.2c0.5,0,0.9-0.2,1.2-0.5
				s0.4-0.8,0.4-1.3c0-0.5-0.1-1-0.4-1.3s-0.6-0.5-1.1-0.5C555.6,57.5,555.2,57.6,554.8,58z"/>
			<path id="XMLID_159_" d="M563.2,62v-0.7c-0.2,0.2-0.5,0.4-0.8,0.6s-0.6,0.2-0.9,0.2c-0.3,0-0.7-0.1-0.9-0.3s-0.5-0.4-0.7-0.7
				s-0.2-0.8-0.2-1.5v-3.1h1.1v3.1c0,0.6,0.1,1,0.2,1.2s0.4,0.3,0.9,0.3c0.5,0,0.9-0.2,1.3-0.7v-3.8h1.1V62H563.2z"/>
			<path id="XMLID_161_" d="M565,57.4l2-2v1.1h1.7v1H567v2.6c0,0.6,0.3,0.9,0.8,0.9c0.4,0,0.8-0.1,1.2-0.4v1
				c-0.4,0.2-0.9,0.3-1.3,0.3c-0.5,0-0.9-0.1-1.2-0.4c-0.1-0.1-0.2-0.2-0.3-0.3s-0.1-0.2-0.2-0.4s-0.1-0.5-0.1-1v-2.4H565V57.4z"/>
			<path id="XMLID_163_" d="M570.3,54.3c0.2,0,0.3,0.1,0.5,0.2s0.2,0.3,0.2,0.4c0,0.2-0.1,0.3-0.2,0.4s-0.3,0.2-0.5,0.2
				c-0.2,0-0.3-0.1-0.4-0.2s-0.2-0.3-0.2-0.4c0-0.2,0.1-0.3,0.2-0.4S570.1,54.3,570.3,54.3z M569.8,56.6h1.1V62h-1.1V56.6z"/>
			<path id="XMLID_166_" d="M574.9,56.6c0.8,0,1.5,0.3,2,0.8s0.8,1.2,0.8,2c0,0.8-0.3,1.4-0.8,1.9s-1.2,0.8-2.1,0.8
				c-0.8,0-1.5-0.3-2-0.8s-0.8-1.2-0.8-2c0-0.8,0.3-1.4,0.8-2S574.1,56.6,574.9,56.6z M574.9,57.5c-0.5,0-0.9,0.2-1.3,0.5
				s-0.5,0.8-0.5,1.3c0,0.5,0.2,0.9,0.5,1.3s0.8,0.5,1.3,0.5c0.5,0,1-0.2,1.3-0.5s0.5-0.8,0.5-1.3c0-0.5-0.2-0.9-0.5-1.3
				S575.4,57.5,574.9,57.5z"/>
			<path id="XMLID_169_" d="M580,56.6v0.7c0.5-0.5,1-0.8,1.6-0.8c0.3,0,0.6,0.1,0.9,0.3s0.5,0.4,0.7,0.7s0.2,0.8,0.2,1.4V62h-1.1
				v-3.1c0-0.6-0.1-0.9-0.3-1.2s-0.4-0.4-0.8-0.4c-0.5,0-0.9,0.3-1.3,0.8V62H579v-5.4H580z"/>
			<path id="XMLID_171_" d="M590.9,56.6c0.8,0,1.5,0.3,2,0.8s0.8,1.2,0.8,2c0,0.8-0.3,1.4-0.8,1.9s-1.2,0.8-2.1,0.8
				c-0.8,0-1.5-0.3-2-0.8s-0.8-1.2-0.8-2c0-0.8,0.3-1.4,0.8-2S590.1,56.6,590.9,56.6z M590.8,57.5c-0.5,0-0.9,0.2-1.3,0.5
				s-0.5,0.8-0.5,1.3c0,0.5,0.2,0.9,0.5,1.3s0.8,0.5,1.3,0.5c0.5,0,1-0.2,1.3-0.5s0.5-0.8,0.5-1.3c0-0.5-0.2-0.9-0.5-1.3
				S591.4,57.5,590.8,57.5z"/>
			<path id="XMLID_174_" d="M595.1,56.6v-0.3c0-0.9,0.2-1.5,0.6-1.9s0.8-0.6,1.3-0.6c0.2,0,0.5,0,0.8,0.1v1
				c-0.2-0.1-0.3-0.1-0.5-0.1c-0.4,0-0.7,0.1-0.9,0.3s-0.2,0.6-0.2,1.2v0.3h1v1h-1V62h-1.1v-4.4h-0.8v-1H595.1z"/>
			<path id="XMLID_176_" d="M604.6,56.6h1.2l-2.4,5.5H603l-2.4-5.5h1.2l1.5,3.3L604.6,56.6z"/>
			<path id="XMLID_178_" d="M608.9,56.6c0.8,0,1.5,0.3,2,0.8s0.8,1.2,0.8,2c0,0.8-0.3,1.4-0.8,1.9s-1.2,0.8-2.1,0.8
				c-0.8,0-1.5-0.3-2-0.8s-0.8-1.2-0.8-2c0-0.8,0.3-1.4,0.8-2S608,56.6,608.9,56.6z M608.8,57.5c-0.5,0-0.9,0.2-1.3,0.5
				s-0.5,0.8-0.5,1.3c0,0.5,0.2,0.9,0.5,1.3s0.8,0.5,1.3,0.5c0.5,0,1-0.2,1.3-0.5s0.5-0.8,0.5-1.3c0-0.5-0.2-0.9-0.5-1.3
				S609.3,57.5,608.8,57.5z"/>
			<path id="XMLID_181_" d="M612.2,57.4l2-2v1.1h1.7v1h-1.7v2.6c0,0.6,0.3,0.9,0.8,0.9c0.4,0,0.8-0.1,1.2-0.4v1
				c-0.4,0.2-0.9,0.3-1.3,0.3c-0.5,0-0.9-0.1-1.2-0.4c-0.1-0.1-0.2-0.2-0.3-0.3s-0.1-0.2-0.2-0.4s-0.1-0.5-0.1-1v-2.4h-0.9V57.4z"/>
			<path id="XMLID_183_" d="M621.5,59.4h-3.8c0,0.5,0.2,0.9,0.5,1.2s0.7,0.5,1.2,0.5c0.7,0,1.4-0.2,1.9-0.7v1
				c-0.3,0.2-0.7,0.4-1,0.5s-0.7,0.1-1.1,0.1c-0.6,0-1.1-0.1-1.4-0.4s-0.7-0.6-0.9-1s-0.3-0.9-0.3-1.4c0-0.8,0.2-1.5,0.7-2
				s1.1-0.8,1.8-0.8c0.7,0,1.3,0.3,1.7,0.8s0.6,1.2,0.6,2V59.4z M617.7,58.7h2.7c0-0.4-0.2-0.8-0.4-1s-0.5-0.3-0.9-0.3
				s-0.7,0.1-0.9,0.3S617.8,58.3,617.7,58.7z"/>
			<path id="XMLID_186_" d="M622.4,61.6v-1.1c0.3,0.2,0.6,0.4,0.9,0.5s0.6,0.2,0.8,0.2c0.2,0,0.4-0.1,0.6-0.2s0.2-0.2,0.2-0.4
				c0-0.2-0.1-0.3-0.2-0.4s-0.3-0.3-0.7-0.4c-0.7-0.4-1.1-0.7-1.4-1s-0.3-0.6-0.3-0.9c0-0.4,0.2-0.8,0.5-1s0.7-0.4,1.2-0.4
				c0.5,0,1.1,0.1,1.6,0.4V58c-0.6-0.4-1.2-0.6-1.6-0.6c-0.2,0-0.4,0-0.5,0.1c-0.1,0.1-0.2,0.2-0.2,0.3c0,0.1,0.1,0.2,0.2,0.4
				c0.1,0.1,0.3,0.3,0.6,0.4l0.4,0.2c0.9,0.5,1.3,1.1,1.3,1.7c0,0.4-0.2,0.8-0.5,1.1c-0.3,0.3-0.8,0.4-1.3,0.4c-0.3,0-0.6,0-0.9-0.1
				S622.8,61.8,622.4,61.6z"/>
		</g>
	</g>
	<g id="XMLID_15_">
		<g id="XMLID_51_">
			<line id="XMLID_54_" class="st10" x1="648.8" y1="58.6" x2="661.5" y2="58.6"/>
			<g id="XMLID_52_">
				<polygon id="XMLID_53_" class="st11" points="650.3,63.6 641.6,58.6 650.3,53.6 				"/>
			</g>
		</g>
	</g>
	<line id="XMLID_16_" class="st10" x1="661.5" y1="58.6" x2="661.5" y2="104"/>
	<g id="XMLID_17_">
		<g id="XMLID_41_">
			<line id="XMLID_49_" class="st10" x1="661.5" y1="104" x2="648.8" y2="104"/>
			<g id="XMLID_47_">
				<polygon id="XMLID_48_" class="st11" points="650.3,99 641.6,104 650.3,109 				"/>
			</g>
		</g>
	</g>
	<line id="XMLID_18_" class="st10" x1="661.5" y1="104" x2="680.1" y2="104"/>
	<line id="XMLID_19_" class="st10" x1="680.1" y1="104" x2="680.1" y2="181.5"/>
	<g id="XMLID_22_">
		<g id="XMLID_36_">
			<line id="XMLID_39_" class="st10" x1="680.1" y1="181.5" x2="657.1" y2="181.5"/>
			<g id="XMLID_37_">
				<polygon id="XMLID_38_" class="st11" points="658.5,176.5 649.9,181.5 658.5,186.5 				"/>
			</g>
		</g>
	</g>
</g>
<g id="Warstwa_7">
	<g id="XMLID_7_">
		<rect id="XMLID_5_" x="456.9" y="92.6" class="st9" width="181.4" height="22.7"/>
		<g id="XMLID_23_">
			<path id="XMLID_24_" d="M466.1,99.1h6.8v1h-2.9v7.2h-1.2v-7.2h-2.8V99.1z"/>
			<path id="XMLID_26_" d="M473.9,99.1h1.1v3.5c0.4-0.5,1-0.8,1.7-0.8c0.4,0,0.7,0.1,1,0.3s0.5,0.4,0.6,0.7s0.2,0.8,0.2,1.4v3.1
				h-1.1V104c0-0.4-0.1-0.7-0.3-1s-0.4-0.4-0.8-0.4c-0.2,0-0.5,0.1-0.7,0.2s-0.4,0.3-0.7,0.6v3.9h-1.1V99.1z"/>
			<path id="XMLID_28_" d="M484.5,104.7h-3.8c0,0.5,0.2,0.9,0.5,1.2s0.7,0.5,1.2,0.5c0.7,0,1.4-0.2,1.9-0.7v1
				c-0.3,0.2-0.7,0.4-1,0.5s-0.7,0.1-1.1,0.1c-0.6,0-1.1-0.1-1.4-0.4s-0.7-0.6-0.9-1s-0.3-0.9-0.3-1.4c0-0.8,0.2-1.5,0.7-2
				s1.1-0.8,1.8-0.8c0.7,0,1.3,0.3,1.7,0.8s0.6,1.2,0.6,2V104.7z M480.8,104.1h2.7c0-0.4-0.2-0.8-0.4-1s-0.5-0.3-0.9-0.3
				s-0.7,0.1-0.9,0.3S480.8,103.7,480.8,104.1z"/>
			<path id="XMLID_31_" d="M490.1,101.9v0.7c0.5-0.5,1-0.8,1.6-0.8c0.3,0,0.6,0.1,0.9,0.3s0.5,0.4,0.7,0.7s0.2,0.8,0.2,1.4v3.1h-1.1
				v-3.1c0-0.6-0.1-0.9-0.3-1.2s-0.4-0.4-0.8-0.4c-0.5,0-0.9,0.3-1.3,0.8v3.8H489v-5.4H490.1z"/>
			<path id="XMLID_56_" d="M498.3,107.3v-0.7c-0.2,0.2-0.5,0.4-0.8,0.6s-0.6,0.2-0.9,0.2c-0.3,0-0.7-0.1-0.9-0.3s-0.5-0.4-0.7-0.7
				s-0.2-0.8-0.2-1.5v-3.1h1.1v3.1c0,0.6,0.1,1,0.2,1.2s0.4,0.3,0.9,0.3c0.5,0,0.9-0.2,1.3-0.7v-3.8h1.1v5.4H498.3z"/>
			<path id="XMLID_58_" d="M505.3,103.4v3.9h-1.1v-3c0-0.6-0.1-1-0.2-1.3s-0.4-0.4-0.8-0.4c-0.2,0-0.4,0.1-0.6,0.2s-0.4,0.3-0.6,0.5
				v3.9h-1.1v-5.4h1.1v0.7c0.5-0.5,1.1-0.8,1.6-0.8c0.7,0,1.2,0.3,1.6,1c0.6-0.7,1.2-1,1.8-1c0.5,0,1,0.2,1.3,0.6s0.5,1,0.5,1.8v3.2
				h-1.1v-3.2c0-0.4-0.1-0.8-0.3-1s-0.4-0.4-0.8-0.4C506.1,102.7,505.7,103,505.3,103.4z"/>
			<path id="XMLID_60_" d="M510.1,99.1h1.1v3.2c0.5-0.3,1-0.5,1.5-0.5c0.7,0,1.2,0.3,1.7,0.8s0.7,1.2,0.7,2c0,0.9-0.3,1.6-0.8,2.1
				s-1.2,0.8-2.1,0.8c-0.3,0-0.7,0-1.1-0.1s-0.7-0.2-0.9-0.3V99.1z M511.2,103.3v2.9c0.4,0.1,0.7,0.2,1.1,0.2c0.5,0,0.9-0.2,1.2-0.5
				s0.4-0.8,0.4-1.3c0-0.5-0.1-1-0.4-1.3s-0.6-0.5-1.1-0.5C512,102.8,511.6,103,511.2,103.3z"/>
			<path id="XMLID_63_" d="M520.7,104.7H517c0,0.5,0.2,0.9,0.5,1.2s0.7,0.5,1.2,0.5c0.7,0,1.4-0.2,1.9-0.7v1c-0.3,0.2-0.7,0.4-1,0.5
				s-0.7,0.1-1.1,0.1c-0.6,0-1.1-0.1-1.4-0.4s-0.7-0.6-0.9-1s-0.3-0.9-0.3-1.4c0-0.8,0.2-1.5,0.7-2s1.1-0.8,1.8-0.8
				c0.7,0,1.3,0.3,1.7,0.8s0.6,1.2,0.6,2V104.7z M517,104.1h2.7c0-0.4-0.2-0.8-0.4-1s-0.5-0.3-0.9-0.3s-0.7,0.1-0.9,0.3
				S517,103.7,517,104.1z"/>
			<path id="XMLID_66_" d="M523,101.9v1.2l0.1-0.1c0.5-0.8,1-1.2,1.5-1.2c0.4,0,0.8,0.2,1.3,0.6l-0.6,0.9c-0.4-0.4-0.7-0.5-1-0.5
				c-0.3,0-0.6,0.2-0.9,0.5s-0.4,0.7-0.4,1.2v2.8H522v-5.4H523z"/>
			<path id="XMLID_68_" d="M532.6,101.9c0.8,0,1.5,0.3,2,0.8s0.8,1.2,0.8,2c0,0.8-0.3,1.4-0.8,1.9s-1.2,0.8-2.1,0.8
				c-0.8,0-1.5-0.3-2-0.8s-0.8-1.2-0.8-2c0-0.8,0.3-1.4,0.8-2S531.7,101.9,532.6,101.9z M532.5,102.9c-0.5,0-0.9,0.2-1.3,0.5
				s-0.5,0.8-0.5,1.3c0,0.5,0.2,0.9,0.5,1.3s0.8,0.5,1.3,0.5c0.5,0,1-0.2,1.3-0.5s0.5-0.8,0.5-1.3c0-0.5-0.2-0.9-0.5-1.3
				S533,102.9,532.5,102.9z"/>
			<path id="XMLID_71_" d="M536.7,101.9v-0.3c0-0.9,0.2-1.5,0.6-1.9s0.8-0.6,1.3-0.6c0.2,0,0.5,0,0.8,0.1v1
				c-0.2-0.1-0.3-0.1-0.5-0.1c-0.4,0-0.7,0.1-0.9,0.3s-0.2,0.6-0.2,1.2v0.3h1v1h-1v4.4h-1.1v-4.4H536v-1H536.7z"/>
			<path id="XMLID_73_" d="M547,106.1v1.1c-0.5,0.2-1.1,0.3-1.6,0.3c-0.8,0-1.5-0.3-2-0.8s-0.8-1.2-0.8-2c0-0.8,0.2-1.5,0.7-2.1
				s1.1-0.8,1.9-0.8c0.3,0,0.5,0,0.7,0.1s0.5,0.2,0.8,0.3v1.1c-0.5-0.3-1-0.5-1.5-0.5c-0.5,0-0.9,0.2-1.2,0.5s-0.5,0.8-0.5,1.3
				c0,0.6,0.2,1,0.5,1.3s0.8,0.5,1.4,0.5C546,106.4,546.4,106.3,547,106.1z"/>
			<path id="XMLID_75_" d="M550.8,101.9c0.8,0,1.5,0.3,2,0.8s0.8,1.2,0.8,2c0,0.8-0.3,1.4-0.8,1.9s-1.2,0.8-2.1,0.8
				c-0.8,0-1.5-0.3-2-0.8s-0.8-1.2-0.8-2c0-0.8,0.3-1.4,0.8-2S549.9,101.9,550.8,101.9z M550.7,102.9c-0.5,0-0.9,0.2-1.3,0.5
				s-0.5,0.8-0.5,1.3c0,0.5,0.2,0.9,0.5,1.3s0.8,0.5,1.3,0.5c0.5,0,1-0.2,1.3-0.5s0.5-0.8,0.5-1.3c0-0.5-0.2-0.9-0.5-1.3
				S551.2,102.9,550.7,102.9z"/>
			<path id="XMLID_78_" d="M559.2,103.4v3.9h-1.1v-3c0-0.6-0.1-1-0.2-1.3s-0.4-0.4-0.8-0.4c-0.2,0-0.4,0.1-0.6,0.2s-0.4,0.3-0.6,0.5
				v3.9h-1.1v-5.4h1.1v0.7c0.5-0.5,1.1-0.8,1.6-0.8c0.7,0,1.2,0.3,1.6,1c0.6-0.7,1.2-1,1.8-1c0.5,0,1,0.2,1.3,0.6s0.5,1,0.5,1.8v3.2
				h-1.1v-3.2c0-0.4-0.1-0.8-0.3-1s-0.4-0.4-0.8-0.4C560,102.7,559.6,103,559.2,103.4z"/>
			<path id="XMLID_80_" d="M564,110.1v-8.1h1.9c1,0,1.7,0.2,2.2,0.7s0.8,1.1,0.8,2c0,0.8-0.3,1.5-0.8,2s-1.1,0.8-1.9,0.8
				c-0.3,0-0.7-0.1-1.1-0.2v2.9H564z M565.8,102.9h-0.8v3.3c0.3,0.2,0.7,0.3,1,0.3c0.5,0,0.9-0.2,1.2-0.5s0.5-0.8,0.5-1.3
				c0-0.4-0.1-0.7-0.2-0.9c-0.1-0.3-0.4-0.5-0.6-0.6C566.7,103,566.3,102.9,565.8,102.9z"/>
			<path id="XMLID_83_" d="M574.7,104.7h-3.8c0,0.5,0.2,0.9,0.5,1.2s0.7,0.5,1.2,0.5c0.7,0,1.4-0.2,1.9-0.7v1
				c-0.3,0.2-0.7,0.4-1,0.5s-0.7,0.1-1.1,0.1c-0.6,0-1.1-0.1-1.4-0.4s-0.7-0.6-0.9-1s-0.3-0.9-0.3-1.4c0-0.8,0.2-1.5,0.7-2
				s1.1-0.8,1.8-0.8c0.7,0,1.3,0.3,1.7,0.8s0.6,1.2,0.6,2V104.7z M570.9,104.1h2.7c0-0.4-0.2-0.8-0.4-1s-0.5-0.3-0.9-0.3
				s-0.7,0.1-0.9,0.3S571,103.7,570.9,104.1z"/>
			<path id="XMLID_86_" d="M575.1,102.8l2-2v1.1h1.7v1h-1.7v2.6c0,0.6,0.3,0.9,0.8,0.9c0.4,0,0.8-0.1,1.2-0.4v1
				c-0.4,0.2-0.9,0.3-1.3,0.3c-0.5,0-0.9-0.1-1.2-0.4c-0.1-0.1-0.2-0.2-0.3-0.3s-0.1-0.2-0.2-0.4s-0.1-0.5-0.1-1v-2.4h-0.9V102.8z"
				/>
			<path id="XMLID_88_" d="M580.4,99.7c0.2,0,0.3,0.1,0.5,0.2s0.2,0.3,0.2,0.4c0,0.2-0.1,0.3-0.2,0.4s-0.3,0.2-0.5,0.2
				c-0.2,0-0.3-0.1-0.4-0.2s-0.2-0.3-0.2-0.4c0-0.2,0.1-0.3,0.2-0.4S580.2,99.7,580.4,99.7z M579.8,101.9h1.1v5.4h-1.1V101.9z"/>
			<path id="XMLID_91_" d="M583.5,101.9v0.7c0.5-0.5,1-0.8,1.6-0.8c0.3,0,0.6,0.1,0.9,0.3s0.5,0.4,0.7,0.7s0.2,0.8,0.2,1.4v3.1h-1.1
				v-3.1c0-0.6-0.1-0.9-0.3-1.2s-0.4-0.4-0.8-0.4c-0.5,0-0.9,0.3-1.3,0.8v3.8h-1.1v-5.4H583.5z"/>
			<path id="XMLID_93_" d="M588.2,103.8c0-0.6,0.2-1,0.6-1.4s1-0.5,1.7-0.5h2.2v0.8h-1.1c0.2,0.2,0.4,0.4,0.4,0.6s0.1,0.4,0.1,0.6
				c0,0.3-0.1,0.6-0.2,0.8s-0.4,0.5-0.6,0.6s-0.7,0.3-1.2,0.3c-0.4,0.1-0.6,0.2-0.6,0.4c0,0.1,0.1,0.2,0.2,0.3s0.4,0.2,0.8,0.2
				c0.7,0.1,1.1,0.3,1.3,0.3s0.4,0.2,0.5,0.4c0.3,0.3,0.4,0.6,0.4,1c0,0.5-0.2,0.9-0.7,1.2s-1.1,0.5-1.8,0.5c-0.8,0-1.4-0.2-1.8-0.5
				s-0.7-0.7-0.7-1.2c0-0.7,0.5-1.2,1.4-1.4c-0.4-0.2-0.5-0.5-0.5-0.7c0-0.2,0.1-0.3,0.2-0.5s0.4-0.2,0.6-0.3
				C588.6,105.1,588.2,104.6,588.2,103.8z M589.9,107.6c-0.4,0-0.7,0.1-0.9,0.2s-0.3,0.3-0.3,0.6c0,0.6,0.5,0.8,1.5,0.8
				c0.5,0,0.8-0.1,1.1-0.2s0.4-0.3,0.4-0.6c0-0.3-0.2-0.5-0.5-0.6S590.4,107.6,589.9,107.6z M590.2,102.9c-0.3,0-0.5,0.1-0.7,0.3
				s-0.3,0.4-0.3,0.7c0,0.3,0.1,0.5,0.3,0.7s0.5,0.3,0.8,0.3c0.3,0,0.6-0.1,0.8-0.3s0.3-0.4,0.3-0.7c0-0.3-0.1-0.5-0.3-0.7
				S590.5,102.9,590.2,102.9z"/>
			<path id="XMLID_97_" d="M596.8,110.1v-8.1h1.9c1,0,1.7,0.2,2.2,0.7s0.8,1.1,0.8,2c0,0.8-0.3,1.5-0.8,2s-1.1,0.8-1.9,0.8
				c-0.3,0-0.7-0.1-1.1-0.2v2.9H596.8z M598.7,102.9h-0.8v3.3c0.3,0.2,0.7,0.3,1,0.3c0.5,0,0.9-0.2,1.2-0.5s0.5-0.8,0.5-1.3
				c0-0.4-0.1-0.7-0.2-0.9c-0.1-0.3-0.4-0.5-0.6-0.6C599.5,103,599.2,102.9,598.7,102.9z"/>
			<path id="XMLID_111_" d="M606.3,104.1v2.3c0,0.2,0.1,0.3,0.2,0.3c0.1,0,0.3-0.1,0.6-0.3v0.7c-0.2,0.2-0.4,0.3-0.6,0.3
				s-0.3,0.1-0.5,0.1c-0.5,0-0.7-0.2-0.8-0.5c-0.5,0.4-0.9,0.5-1.4,0.5c-0.4,0-0.7-0.1-0.9-0.4s-0.4-0.6-0.4-0.9
				c0-0.3,0.1-0.6,0.4-0.9s0.6-0.5,1-0.6l1.4-0.5v-0.3c0-0.6-0.3-1-1-1c-0.6,0-1.1,0.3-1.7,0.9v-1.2c0.4-0.5,1-0.7,1.8-0.7
				c0.6,0,1,0.2,1.4,0.5c0.1,0.1,0.2,0.2,0.3,0.4s0.2,0.3,0.2,0.5S606.3,103.6,606.3,104.1z M605.2,106.3v-1.6l-0.7,0.3
				c-0.4,0.1-0.6,0.3-0.8,0.4s-0.2,0.3-0.2,0.5c0,0.2,0.1,0.4,0.2,0.5s0.3,0.2,0.6,0.2C604.6,106.7,604.9,106.5,605.2,106.3z"/>
			<path id="XMLID_114_" d="M609.2,101.9v1.2l0.1-0.1c0.5-0.8,1-1.2,1.5-1.2c0.4,0,0.8,0.2,1.3,0.6l-0.6,0.9c-0.4-0.4-0.7-0.5-1-0.5
				c-0.3,0-0.6,0.2-0.9,0.5s-0.4,0.7-0.4,1.2v2.8h-1.1v-5.4H609.2z"/>
			<path id="XMLID_117_" d="M612.3,102.8l2-2v1.1h1.7v1h-1.7v2.6c0,0.6,0.3,0.9,0.8,0.9c0.4,0,0.8-0.1,1.2-0.4v1
				c-0.4,0.2-0.9,0.3-1.3,0.3c-0.5,0-0.9-0.1-1.2-0.4c-0.1-0.1-0.2-0.2-0.3-0.3s-0.1-0.2-0.2-0.4s-0.1-0.5-0.1-1v-2.4h-0.9V102.8z"
				/>
			<path id="XMLID_119_" d="M617.6,99.7c0.2,0,0.3,0.1,0.5,0.2s0.2,0.3,0.2,0.4c0,0.2-0.1,0.3-0.2,0.4s-0.3,0.2-0.5,0.2
				c-0.2,0-0.3-0.1-0.4-0.2s-0.2-0.3-0.2-0.4c0-0.2,0.1-0.3,0.2-0.4S617.4,99.7,617.6,99.7z M617,101.9h1.1v5.4H617V101.9z"/>
			<path id="XMLID_122_" d="M624.2,104.7h-3.8c0,0.5,0.2,0.9,0.5,1.2s0.7,0.5,1.2,0.5c0.7,0,1.4-0.2,1.9-0.7v1
				c-0.3,0.2-0.7,0.4-1,0.5s-0.7,0.1-1.1,0.1c-0.6,0-1.1-0.1-1.4-0.4s-0.7-0.6-0.9-1s-0.3-0.9-0.3-1.4c0-0.8,0.2-1.5,0.7-2
				s1.1-0.8,1.8-0.8c0.7,0,1.3,0.3,1.7,0.8s0.6,1.2,0.6,2V104.7z M620.5,104.1h2.7c0-0.4-0.2-0.8-0.4-1s-0.5-0.3-0.9-0.3
				s-0.7,0.1-0.9,0.3S620.5,103.7,620.5,104.1z"/>
			<path id="XMLID_125_" d="M625.1,106.9v-1.1c0.3,0.2,0.6,0.4,0.9,0.5s0.6,0.2,0.8,0.2c0.2,0,0.4-0.1,0.6-0.2s0.2-0.2,0.2-0.4
				c0-0.2-0.1-0.3-0.2-0.4s-0.3-0.3-0.7-0.4c-0.7-0.4-1.1-0.7-1.4-1s-0.3-0.6-0.3-0.9c0-0.4,0.2-0.8,0.5-1s0.7-0.4,1.2-0.4
				c0.5,0,1.1,0.1,1.6,0.4v1.1c-0.6-0.4-1.2-0.6-1.6-0.6c-0.2,0-0.4,0-0.5,0.1c-0.1,0.1-0.2,0.2-0.2,0.3c0,0.1,0.1,0.2,0.2,0.4
				c0.1,0.1,0.3,0.3,0.6,0.4l0.4,0.2c0.9,0.5,1.3,1.1,1.3,1.7c0,0.4-0.2,0.8-0.5,1.1c-0.3,0.3-0.8,0.4-1.3,0.4c-0.3,0-0.6,0-0.9-0.1
				S625.5,107.1,625.1,106.9z"/>
		</g>
	</g>
</g>
</svg>
