<?xml version="1.0" encoding="utf-8"?>
<!-- Generator: Adobe Illustrator 19.0.0, SVG Export Plug-In . SVG Version: 6.00 Build 0)  -->
<svg version="1.1" xmlns="http://www.w3.org/2000/svg" xmlns:xlink="http://www.w3.org/1999/xlink" x="0px" y="0px"
	 viewBox="0 0 389.7 356.2" style="enable-background:new 0 0 389.7 356.2;" xml:space="preserve">
<style type="text/css">
	.st0{fill:#FFFFFF;stroke:#000000;stroke-miterlimit:10;}
	.st1{fill:none;stroke:#000000;stroke-miterlimit:10;}
	.st2{fill:#FFED00;stroke:#000000;stroke-miterlimit:10;}
	.st3{fill:none;stroke:#000000;stroke-miterlimit:10;stroke-dasharray:3.6302,3.6302;}
	.st4{fill:#F6F6F6;stroke:#000000;stroke-miterlimit:10;}
	.st5{display:none;}
	.st6{display:inline;fill:#EDEDED;stroke:#000000;stroke-miterlimit:10;}
	.st7{display:inline;}
	.st8{display:none;fill:none;stroke:#000000;stroke-miterlimit:10;}
	.st9{fill:none;}
</style>
<g id="Warstwa_1">
</g>
<g id="Warstwa_2">
	<rect id="XMLID_1_" x="98.7" y="0.5" class="st0" width="130.4" height="34"/>
	<g id="XMLID_2_">
		<path id="XMLID_342_" d="M118.1,18.8c0.2,0.6,0.7,1.2,1.6,1.2c0.8,0,1.3-0.4,1.3-1.1c0-1.8-3.8-1.4-3.8-4.1c0-1.3,1-2.3,2.5-2.3
			c1.6,0,2.3,1.1,2.5,1.7l-1.1,0.5c-0.2-0.4-0.6-1-1.4-1c-0.7,0-1.2,0.5-1.2,1c0,1.7,3.8,1.4,3.8,4c0,1.4-1,2.5-2.7,2.5
			c-1.7,0-2.5-1.2-2.7-1.9L118.1,18.8z"/>
		<path id="XMLID_344_" d="M124.5,23.2l0.9-2.3l-2.5-6.2h1.4l1.7,4.6l1.7-4.6h1.4l-3.3,8.4H124.5z"/>
		<path id="XMLID_346_" d="M130.2,19.3c0.3,0.4,0.7,0.8,1.5,0.8c0.6,0,1-0.3,1-0.8c0-1.2-3-0.8-3-2.9c0-1.1,0.9-1.8,2.1-1.8
			c1.2,0,1.8,0.7,2,1.2l-0.9,0.6c-0.2-0.3-0.5-0.7-1.2-0.7c-0.5,0-0.8,0.3-0.8,0.7c0,1.2,3.1,0.7,3.1,2.9c0,1.2-1,1.9-2.3,1.9
			c-1.3,0-1.9-0.7-2.3-1.2L130.2,19.3z"/>
		<path id="XMLID_348_" d="M135.1,13.5h1.3v1.3h1.3v1.1h-1.3v2.9c0,1,0.4,1.2,1.1,1.2c0.1,0,0.3,0,0.3,0v1.1c0,0-0.2,0-0.6,0
			c-1.5,0-2-1-2-2.6v-2.7h-0.7v-1.1h0.7V13.5z"/>
		<path id="XMLID_350_" d="M141.4,14.6c1.9,0,3,1.3,3,3.3c0,0.1,0,0.2,0,0.3h-4.7c0,1.1,0.8,1.8,1.9,1.8c0.9,0,1.5-0.5,1.7-0.9
			l0.9,0.6c-0.3,0.5-1.1,1.4-2.6,1.4c-2,0-3.3-1.4-3.3-3.3C138.4,16,139.7,14.6,141.4,14.6z M143.1,17.3c0-1-0.8-1.6-1.7-1.6
			s-1.6,0.6-1.7,1.6H143.1z"/>
		<path id="XMLID_353_" d="M154.3,21H153v-3.8c0-1-0.4-1.5-1.2-1.5c-0.7,0-1.3,0.5-1.3,1.5V21h-1.3v-3.9c0-0.9-0.5-1.4-1.2-1.4
			c-0.7,0-1.3,0.6-1.3,1.5V21h-1.3v-6.3h1.3c0,0.5,0,0.8,0,0.8c0.2-0.5,0.8-1,1.7-1c0.9,0,1.5,0.4,1.8,1c0.4-0.7,1.1-1,1.9-1
			c1.4,0,2.1,1,2.1,2.3V21z"/>
		<path id="XMLID_355_" d="M162.9,16.5l-1.4,4.5h-1.4l-2-6.3h1.4l1.4,4.8c0,0,0,0,1.4-4.8h1.2c1.4,4.8,1.4,4.8,1.4,4.8l1.4-4.8h1.4
			l-2,6.3h-1.5L162.9,16.5z"/>
		<path id="XMLID_357_" d="M169.9,23.2l0.9-2.3l-2.5-6.2h1.4l1.7,4.6l1.7-4.6h1.4l-3.3,8.4H169.9z"/>
		<path id="XMLID_359_" d="M175.3,12.4h1.3v3.3c0.2-0.3,0.8-1,2-1c1.8,0,3,1.4,3,3.3c0,1.9-1.3,3.3-3.1,3.3c-1.2,0-1.8-0.8-2-1V21
			h-1.2V12.4z M178.4,20c1.1,0,1.9-0.8,1.9-2.1c0-1.3-0.8-2.1-1.9-2.1c-1,0-1.9,0.8-1.9,2.1C176.5,19.1,177.2,20,178.4,20z"/>
		<path id="XMLID_362_" d="M185.6,14.6c1.9,0,3.3,1.4,3.3,3.3c0,1.9-1.4,3.3-3.3,3.3c-1.9,0-3.3-1.4-3.3-3.3S183.7,14.6,185.6,14.6z
			 M185.6,20c1.2,0,2-0.9,2-2.1c0-1.2-0.9-2.1-2-2.1c-1.2,0-2,0.9-2,2.1C183.6,19.1,184.4,20,185.6,20z"/>
		<path id="XMLID_365_" d="M193,15.9c-1.4,0-1.8,1-1.8,2.4V21H190v-6.3h1.3v1c0.2-0.6,0.9-1.1,1.8-1.1V15.9z"/>
		<path id="XMLID_367_" d="M198.6,16.5c-0.3-0.3-0.9-0.7-1.7-0.7c-1.2,0-2,0.9-2,2.1c0,1.2,0.9,2.1,2,2.1c0.8,0,1.4-0.5,1.6-0.7
			l0.4,1.1c-0.3,0.3-1,0.8-2.1,0.8c-1.9,0-3.3-1.4-3.3-3.3c0-1.9,1.4-3.3,3.3-3.3c1,0,1.7,0.5,2.1,0.8L198.6,16.5z"/>
		<path id="XMLID_369_" d="M199.7,20.2l3.2-4.3h-3.1v-1.1h4.7v0.9l-3.2,4.3h3.2V21h-4.8V20.2z"/>
		<path id="XMLID_371_" d="M206.5,23.2l0.9-2.3l-2.5-6.2h1.4l1.7,4.6l1.7-4.6h1.4l-3.3,8.4H206.5z"/>
	</g>
	<g id="XMLID_6_">
		<g id="XMLID_4_">
			<g id="XMLID_17_">
				<line id="XMLID_20_" class="st1" x1="163.9" y1="45.3" x2="192.3" y2="85.9"/>
				<g id="XMLID_18_">
					<polygon id="XMLID_19_" points="187.4,87.5 196.4,91.8 195.6,81.8 					"/>
				</g>
			</g>
		</g>
		<g id="XMLID_5_">
			<g id="XMLID_22_">
				<line id="XMLID_25_" class="st1" x1="163.9" y1="45.3" x2="135.5" y2="85.9"/>
				<g id="XMLID_23_">
					<polygon id="XMLID_24_" points="132.3,81.8 131.4,91.8 140.4,87.5 					"/>
				</g>
			</g>
		</g>
	</g>
	<rect id="XMLID_3_" x="1" y="99" class="st2" width="130.4" height="34"/>
	<g id="XMLID_8_">
		<path id="XMLID_298_" d="M11.2,111.1h4v0.9h-3v2.8h2.6v0.9h-2.6v3h3.1v0.9h-4.1V111.1z"/>
		<path id="XMLID_300_" d="M17,114.1h-0.7v-0.8H17V113c0-1.6,0.9-2.1,2-2.1c0.2,0,0.4,0,0.4,0v0.8c0,0-0.2,0-0.3,0
			c-0.7,0-1.1,0.4-1.1,1.2v0.3h1.3v0.8h-1.3v5.4h-1V114.1z"/>
		<path id="XMLID_302_" d="M22.8,113.1c1.8,0,3,1.3,3,3.2c0,0,0,0.2,0,0.3h-5c0,1.4,0.9,2.2,2.2,2.2c1.1,0,1.6-0.6,1.9-1l0.6,0.5
			c-0.3,0.6-1.2,1.4-2.6,1.4c-1.9,0-3.2-1.3-3.2-3.3C19.8,114.4,21.1,113.1,22.8,113.1z M24.8,115.9c-0.1-1.3-1-2-2-2
			c-1,0-1.9,0.8-2,2H24.8z"/>
		<path id="XMLID_305_" d="M27,110.9h0.9v5.1l2.5-2.7h1.2l-2.7,2.8l2.8,3.4h-1.2l-2.7-3.3v3.3H27V110.9z"/>
		<path id="XMLID_307_" d="M33,112h0.9v1.3h1.4v0.8h-1.4v3.2c0,1.2,0.3,1.4,1.2,1.4c0.1,0,0.3,0,0.3,0v0.8c0,0-0.3,0-0.6,0
			c-1.2,0-1.8-0.8-1.8-2.2v-3.3h-0.7v-0.8H33V112z"/>
		<path id="XMLID_309_" d="M40.6,113.3h0.9l-0.2,1c0.2-0.2,1-1.1,2.4-1.1c1.6,0,2.6,1.1,2.6,2.7c0,2.2-1.6,3.8-3.6,3.8
			c-1.3,0-1.9-0.8-2-1.2l-0.5,3.3h-0.9L40.6,113.3z M42.7,118.8c1.4,0,2.6-1.2,2.6-2.9c0-1.2-0.7-2-1.8-2c-1.5,0-2.6,1.3-2.6,2.8
			C40.9,118.1,41.6,118.8,42.7,118.8z"/>
		<path id="XMLID_312_" d="M47.3,117.9c0.2,0.5,0.6,0.9,1.4,0.9c0.7,0,1.3-0.4,1.3-1.1c0-1.2-2.7-1.1-2.7-2.8c0-1.1,1-1.8,2.3-1.8
			c1.2,0,1.7,0.7,1.8,1.2l-0.8,0.4c-0.1-0.3-0.4-0.8-1.2-0.8c-0.6,0-1.2,0.3-1.2,1c0,1.2,2.7,1.2,2.7,2.9c0,1.2-0.9,1.9-2.4,1.9
			c-1.3,0-1.8-0.8-2-1.3L47.3,117.9z"/>
		<path id="XMLID_314_" d="M52.4,121.7l1.3-2.2l-1.5-6.2h1l1.1,5l2.8-5h1l-4.7,8.4H52.4z"/>
		<path id="XMLID_316_" d="M63.4,114.8c-0.2-0.3-0.8-0.8-1.7-0.8c-1.5,0-2.7,1.2-2.7,2.8c0,1.2,0.8,2,1.9,2c1,0,1.7-0.6,2-0.8
			l0.2,0.9c-0.3,0.3-1.1,0.8-2.3,0.8c-1.7,0-2.7-1.2-2.7-2.8c0-2.1,1.7-3.7,3.7-3.7c1.1,0,1.8,0.5,2.1,0.9L63.4,114.8z"/>
		<path id="XMLID_318_" d="M69.8,115.6l-0.6,3.9h-0.9l0.7-3.9c0.2-1-0.4-1.6-1.2-1.6c-1,0-1.8,0.7-1.9,1.7l-0.6,3.8h-0.9l1.5-8.7
			h0.9l-0.6,3.3c0.4-0.6,1.2-1.1,2-1.1C69.4,113.1,70,114.2,69.8,115.6z"/>
		<path id="XMLID_320_" d="M74.6,113.1c1.7,0,2.8,1.2,2.8,2.8c0,2.1-1.8,3.8-3.9,3.8c-1.7,0-2.8-1.2-2.8-2.8
			C70.7,114.8,72.5,113.1,74.6,113.1z M73.6,118.8c1.5,0,2.7-1.2,2.7-2.8c0-1.2-0.8-2-1.9-2c-1.5,0-2.7,1.2-2.7,2.8
			C71.7,118,72.5,118.8,73.6,118.8z"/>
		<path id="XMLID_323_" d="M79.4,110.9h0.9l-1.5,8.7H78L79.4,110.9z"/>
		<path id="XMLID_325_" d="M84.5,113.1c1.7,0,2.8,1.2,2.8,2.8c0,2.1-1.8,3.8-3.9,3.8c-1.7,0-2.8-1.2-2.8-2.8
			C80.6,114.8,82.4,113.1,84.5,113.1z M83.5,118.8c1.5,0,2.7-1.2,2.7-2.8c0-1.2-0.8-2-1.9-2c-1.5,0-2.7,1.2-2.7,2.8
			C81.6,118,82.4,118.8,83.5,118.8z"/>
		<path id="XMLID_328_" d="M88.4,120.5c0.2,0.1,0.9,0.5,1.8,0.5c1.2,0,2.3-0.5,2.5-1.9l0.1-0.6c-0.2,0.2-1,1.1-2.4,1.1
			c-1.6,0-2.5-1.1-2.5-2.7c0-2.2,1.6-3.9,3.6-3.9c1.3,0,1.9,0.8,2.1,1.2l0.2-1h0.9l-0.9,5.6c-0.4,2.2-1.8,3-3.6,3
			c-0.8,0-1.7-0.3-2.2-0.6L88.4,120.5z M91.5,114c-1.4,0-2.6,1.2-2.6,2.8c0,1.2,0.7,2,1.8,2c1.5,0,2.6-1.3,2.6-2.8
			C93.2,114.7,92.5,114,91.5,114z"/>
		<path id="XMLID_331_" d="M96.2,113.3h0.9l-1,6.2h-0.9L96.2,113.3z M97.1,111c0.3,0,0.6,0.2,0.6,0.6c0,0.4-0.4,0.7-0.8,0.7
			c-0.3,0-0.5-0.2-0.5-0.6C96.3,111.4,96.7,111,97.1,111z"/>
		<path id="XMLID_334_" d="M103.2,114.8c-0.2-0.3-0.8-0.8-1.7-0.8c-1.5,0-2.7,1.2-2.7,2.8c0,1.2,0.8,2,1.9,2c1,0,1.7-0.6,2-0.8
			l0.2,0.9c-0.3,0.3-1.1,0.8-2.3,0.8c-1.7,0-2.7-1.2-2.7-2.8c0-2.1,1.7-3.7,3.7-3.7c1.1,0,1.8,0.5,2.1,0.9L103.2,114.8z"/>
		<path id="XMLID_336_" d="M103.6,118.9l4.3-4.7h-3.4l0.1-0.8h4.6l-0.1,0.7l-4.3,4.7h3.6l-0.1,0.8h-4.7L103.6,118.9z"/>
		<path id="XMLID_338_" d="M115.1,115.6l-0.6,3.9h-0.9l0.7-3.9c0.2-1-0.4-1.6-1.2-1.6c-1,0-1.7,0.7-1.9,1.7l-0.6,3.8h-0.9l1-6.2h0.9
			l-0.2,0.9c0.4-0.6,1.2-1.1,2-1.1C114.8,113.1,115.3,114.2,115.1,115.6z"/>
		<path id="XMLID_340_" d="M116.4,121.7l1.3-2.2l-1.5-6.2h1l1.1,5l2.8-5h1l-4.7,8.4H116.4z"/>
	</g>
	<rect id="XMLID_9_" x="196.4" y="99" class="st0" width="130.4" height="34"/>
	<g id="XMLID_10_">
		<path id="XMLID_262_" d="M213.2,111.1h4v0.9h-3v2.8h2.6v0.9h-2.6v3h3.1v0.9h-4.1V111.1z"/>
		<path id="XMLID_264_" d="M219,114.1h-0.7v-0.8h0.7V113c0-1.6,0.9-2.1,2-2.1c0.2,0,0.4,0,0.4,0v0.8c0,0-0.2,0-0.3,0
			c-0.7,0-1.1,0.4-1.1,1.2v0.3h1.3v0.8h-1.3v5.4h-1V114.1z"/>
		<path id="XMLID_266_" d="M224.8,113.1c1.8,0,3,1.3,3,3.2c0,0,0,0.2,0,0.3h-5c0,1.4,0.9,2.2,2.2,2.2c1.1,0,1.6-0.6,1.9-1l0.6,0.5
			c-0.3,0.6-1.2,1.4-2.6,1.4c-1.9,0-3.2-1.3-3.2-3.3C221.8,114.4,223.1,113.1,224.8,113.1z M226.8,115.9c-0.1-1.3-1-2-2-2
			c-1,0-1.9,0.8-2,2H226.8z"/>
		<path id="XMLID_269_" d="M229,110.9h0.9v5.1l2.5-2.7h1.2l-2.7,2.8l2.8,3.4h-1.2l-2.7-3.3v3.3H229V110.9z"/>
		<path id="XMLID_271_" d="M235,112h0.9v1.3h1.4v0.8H236v3.2c0,1.2,0.3,1.4,1.2,1.4c0.1,0,0.3,0,0.3,0v0.8c0,0-0.3,0-0.6,0
			c-1.2,0-1.8-0.8-1.8-2.2v-3.3h-0.7v-0.8h0.7V112z"/>
		<path id="XMLID_273_" d="M250.2,119.5h-0.9l0.6-3.8c0.2-1.2-0.2-1.8-1.1-1.8c-0.9,0-1.6,0.6-1.8,1.8l-0.6,3.7h-0.9l0.7-3.9
			c0.2-1-0.3-1.6-1.2-1.6c-0.8,0-1.6,0.7-1.8,1.8l-0.6,3.8h-0.9l1-6.2h0.9c-0.1,0.6-0.2,0.9-0.2,0.9c0.3-0.5,1.1-1.1,1.9-1.1
			c0.9,0,1.5,0.5,1.7,1.1c0.5-0.7,1.3-1.1,2.2-1.1c1.4,0,2,1,1.7,2.4L250.2,119.5z"/>
		<path id="XMLID_275_" d="M255.4,113.1c1.7,0,2.6,1,2.6,2.6c0,0.4-0.1,0.8-0.1,0.9h-5c-0.2,1.4,0.6,2.2,1.9,2.2
			c1.1,0,1.7-0.6,2.1-1l0.6,0.5c-0.4,0.6-1.4,1.3-2.8,1.3c-1.7,0-2.7-1.1-2.7-2.7C251.9,114.8,253.5,113.1,255.4,113.1z M257,115.9
			c0.2-1.3-0.6-2-1.7-2c-1.1,0-2.1,0.8-2.4,2H257z"/>
		<path id="XMLID_278_" d="M264,114.8c-0.2-0.3-0.8-0.8-1.7-0.8c-1.5,0-2.7,1.2-2.7,2.8c0,1.2,0.8,2,1.9,2c1,0,1.7-0.6,2-0.8
			l0.2,0.9c-0.3,0.3-1.1,0.8-2.3,0.8c-1.7,0-2.7-1.2-2.7-2.8c0-2.1,1.7-3.7,3.7-3.7c1.1,0,1.8,0.5,2.1,0.9L264,114.8z"/>
		<path id="XMLID_280_" d="M270.4,115.6l-0.6,3.9h-0.9l0.7-3.9c0.2-1-0.4-1.6-1.2-1.6c-1,0-1.8,0.7-1.9,1.7l-0.6,3.8h-0.9l1.5-8.7
			h0.9l-0.6,3.3c0.4-0.6,1.2-1.1,2-1.1C270.1,113.1,270.6,114.2,270.4,115.6z"/>
		<path id="XMLID_282_" d="M274,115.6c0.8,0,1.3,0.3,1.5,0.6l0.1-0.8c0.1-0.9-0.4-1.4-1.3-1.4c-0.7,0-1.4,0.3-1.9,0.6l-0.3-0.7
			c0.5-0.3,1.3-0.7,2.4-0.7c1.6,0,2.3,0.9,2,2.3l-0.7,4.1h-0.8l0-0.5c-0.4,0.4-1,0.7-1.8,0.7c-1.2,0-2.1-0.7-2.1-1.8
			C271.2,116.6,272.4,115.6,274,115.6z M273.6,118.9c1,0,1.8-0.6,1.8-1.5c0-0.7-0.5-1.1-1.4-1.1c-1,0-1.8,0.6-1.8,1.5
			C272.2,118.4,272.7,118.9,273.6,118.9z"/>
		<path id="XMLID_285_" d="M283.1,115.6l-0.6,3.9h-0.9l0.7-3.9c0.2-1-0.4-1.6-1.2-1.6c-1,0-1.7,0.7-1.9,1.7l-0.6,3.8h-0.9l1-6.2h0.9
			l-0.2,0.9c0.4-0.6,1.2-1.1,2-1.1C282.8,113.1,283.3,114.2,283.1,115.6z"/>
		<path id="XMLID_287_" d="M285.1,113.3h0.9l-1,6.2H284L285.1,113.3z M285.9,111c0.3,0,0.6,0.2,0.6,0.6c0,0.4-0.4,0.7-0.8,0.7
			c-0.3,0-0.5-0.2-0.5-0.6C285.2,111.4,285.5,111,285.9,111z"/>
		<path id="XMLID_290_" d="M292,114.8c-0.2-0.3-0.8-0.8-1.7-0.8c-1.5,0-2.7,1.2-2.7,2.8c0,1.2,0.8,2,1.9,2c1,0,1.7-0.6,2-0.8
			l0.2,0.9c-0.3,0.3-1.1,0.8-2.3,0.8c-1.7,0-2.7-1.2-2.7-2.8c0-2.1,1.7-3.7,3.7-3.7c1.1,0,1.8,0.5,2.1,0.9L292,114.8z"/>
		<path id="XMLID_292_" d="M292.4,118.9l4.3-4.7h-3.4l0.1-0.8h4.6l-0.1,0.7l-4.3,4.7h3.6l-0.1,0.8h-4.8L292.4,118.9z"/>
		<path id="XMLID_294_" d="M303.9,115.6l-0.6,3.9h-0.9l0.7-3.9c0.2-1-0.4-1.6-1.2-1.6c-1,0-1.7,0.7-1.9,1.7l-0.6,3.8h-0.9l1-6.2h0.9
			l-0.2,0.9c0.4-0.6,1.2-1.1,2-1.1C303.6,113.1,304.2,114.2,303.9,115.6z"/>
		<path id="XMLID_296_" d="M305.3,121.7l1.3-2.2l-1.5-6.2h1l1.1,5l2.8-5h1l-4.7,8.4H305.3z"/>
	</g>
	<g id="XMLID_11_">
		<g id="XMLID_37_">
			<line id="XMLID_40_" class="st1" x1="261.6" y1="142.2" x2="261.6" y2="186.1"/>
			<g id="XMLID_38_">
				<polygon id="XMLID_39_" points="256.6,184.6 261.6,193.3 266.6,184.6 				"/>
			</g>
		</g>
	</g>
	<g id="XMLID_12_">
		<path id="XMLID_131_" d="M176.3,209.5h2c2.8,0,4.5,1.6,4.5,4.2c0,2.7-1.7,4.2-4.5,4.2h-2V209.5z M178.4,216.8c1.8,0,3-1,3-3
			c0-1.9-1.2-3-3-3h-0.8v6.1H178.4z"/>
		<path id="XMLID_134_" d="M185.1,220.1l0.9-2.3l-2.5-6.2h1.4l1.7,4.6l1.7-4.6h1.4l-3.3,8.4H185.1z"/>
		<path id="XMLID_136_" d="M190.8,216.2c0.3,0.4,0.7,0.8,1.5,0.8c0.6,0,1-0.3,1-0.8c0-1.2-3-0.8-3-2.9c0-1.1,0.9-1.8,2.1-1.8
			c1.2,0,1.8,0.7,2,1.2l-0.9,0.6c-0.2-0.3-0.5-0.7-1.2-0.7c-0.5,0-0.8,0.3-0.8,0.7c0,1.2,3.1,0.7,3.1,2.9c0,1.2-1,1.9-2.3,1.9
			c-1.3,0-1.9-0.7-2.3-1.2L190.8,216.2z"/>
		<path id="XMLID_138_" d="M195.6,211.7h1.2v0.8c0.2-0.2,0.8-1,2-1c1.8,0,3.1,1.4,3.1,3.3c0,1.9-1.2,3.3-3,3.3c-1.2,0-1.9-0.7-2-1
			v3.1h-1.3V211.7z M198.7,216.9c1.1,0,1.9-0.9,1.9-2.1c0-1.3-0.8-2.1-1.9-2.1c-1.2,0-1.9,1-1.9,2.1
			C196.8,216.1,197.7,216.9,198.7,216.9z"/>
		<path id="XMLID_148_" d="M206.1,212.8c-1.4,0-1.8,1-1.8,2.4v2.7H203v-6.3h1.3v1c0.2-0.6,0.9-1.1,1.8-1.1V212.8z"/>
		<path id="XMLID_150_" d="M209.8,211.5c1.9,0,3.3,1.4,3.3,3.3c0,1.9-1.4,3.3-3.3,3.3c-1.9,0-3.3-1.4-3.3-3.3S208,211.5,209.8,211.5
			z M209.8,216.9c1.2,0,2-0.9,2-2.1c0-1.2-0.9-2.1-2-2.1c-1.2,0-2,0.9-2,2.1C207.8,216,208.7,216.9,209.8,216.9z"/>
		<path id="XMLID_153_" d="M214.2,211.7h1.2v0.8c0.2-0.2,0.8-1,2-1c1.8,0,3.1,1.4,3.1,3.3c0,1.9-1.2,3.3-3,3.3c-1.2,0-1.9-0.7-2-1
			v3.1h-1.3V211.7z M217.4,216.9c1.1,0,1.9-0.9,1.9-2.1c0-1.3-0.8-2.1-1.9-2.1c-1.2,0-1.9,1-1.9,2.1
			C215.5,216.1,216.3,216.9,217.4,216.9z"/>
		<path id="XMLID_156_" d="M224.6,211.5c1.9,0,3.3,1.4,3.3,3.3c0,1.9-1.4,3.3-3.3,3.3c-1.9,0-3.3-1.4-3.3-3.3
			S222.7,211.5,224.6,211.5z M224.6,216.9c1.2,0,2-0.9,2-2.1c0-1.2-0.9-2.1-2-2.1c-1.2,0-2,0.9-2,2.1
			C222.6,216,223.4,216.9,224.6,216.9z"/>
		<path id="XMLID_159_" d="M232.1,212.8c-1.4,0-1.8,1-1.8,2.4v2.7H229v-6.3h1.3v1c0.2-0.6,0.9-1.1,1.8-1.1V212.8z"/>
		<path id="XMLID_161_" d="M237.6,213.4c-0.3-0.3-0.9-0.7-1.7-0.7c-1.2,0-2,0.9-2,2.1c0,1.2,0.9,2.1,2,2.1c0.8,0,1.4-0.5,1.6-0.7
			l0.4,1.1c-0.3,0.3-1,0.8-2.1,0.8c-1.9,0-3.3-1.4-3.3-3.3c0-1.9,1.4-3.3,3.3-3.3c1,0,1.7,0.5,2.1,0.8L237.6,213.4z"/>
		<path id="XMLID_163_" d="M239,211.7h1.3v6.4c0,1.6-1,2.1-2.2,2.1c-0.2,0-0.4,0-0.4,0v-1.1c0,0,0.2,0,0.3,0c0.6,0,1-0.3,1-1.1
			V211.7z M239.7,209.3c0.5,0,0.8,0.4,0.8,0.8c0,0.5-0.4,0.8-0.8,0.8c-0.5,0-0.8-0.4-0.8-0.8C238.9,209.7,239.2,209.3,239.7,209.3z"
			/>
		<path id="XMLID_166_" d="M244.7,211.5c1.9,0,3.3,1.4,3.3,3.3c0,1.9-1.4,3.3-3.3,3.3c-1.9,0-3.3-1.4-3.3-3.3
			S242.9,211.5,244.7,211.5z M244.7,216.9c1.2,0,2-0.9,2-2.1c0-1.2-0.9-2.1-2-2.1c-1.2,0-2,0.9-2,2.1
			C242.7,216,243.6,216.9,244.7,216.9z"/>
		<path id="XMLID_169_" d="M254.4,214.2v3.8h-1.3v-3.9c0-0.9-0.5-1.4-1.3-1.4c-0.8,0-1.4,0.6-1.4,1.5v3.8h-1.3v-6.3h1.3v0.8
			c0.3-0.5,0.9-1,1.8-1C253.8,211.5,254.4,212.8,254.4,214.2z"/>
		<path id="XMLID_171_" d="M257.8,213.9c0.7,0,1.3,0.2,1.5,0.5v-0.6c0-0.7-0.5-1.2-1.3-1.2c-0.7,0-1.3,0.2-1.8,0.5l-0.5-0.9
			c0.5-0.3,1.3-0.7,2.4-0.7c1.9,0,2.5,1,2.5,2.4v4h-1.1l-0.1-0.5c-0.3,0.4-0.8,0.6-1.6,0.6c-1.3,0-2.4-0.8-2.4-2.1
			C255.4,214.8,256.4,213.9,257.8,213.9z M258,217c0.8,0,1.3-0.4,1.3-1.1c0-0.7-0.5-1.1-1.3-1.1c-0.8,0-1.3,0.5-1.3,1.1
			C256.7,216.6,257.3,217,258,217z"/>
		<path id="XMLID_174_" d="M262,209.3h1.3v8.7H262V209.3z"/>
		<path id="XMLID_176_" d="M270,214.2v3.8h-1.3v-3.9c0-0.9-0.5-1.4-1.3-1.4c-0.8,0-1.4,0.6-1.4,1.5v3.8h-1.3v-6.3h1.3v0.8
			c0.3-0.5,0.9-1,1.8-1C269.4,211.5,270,212.8,270,214.2z"/>
		<path id="XMLID_178_" d="M274.4,211.5c1.9,0,3.3,1.4,3.3,3.3c0,1.9-1.4,3.3-3.3,3.3c-1.9,0-3.3-1.4-3.3-3.3
			S272.5,211.5,274.4,211.5z M274.4,216.9c1.2,0,2-0.9,2-2.1c0-1.2-0.9-2.1-2-2.1c-1.2,0-2,0.9-2,2.1
			C272.4,216,273.2,216.9,274.4,216.9z"/>
		<path id="XMLID_181_" d="M279.1,216.2c0.3,0.4,0.7,0.8,1.5,0.8c0.6,0,1-0.3,1-0.8c0-1.2-3-0.8-3-2.9c0-1.1,0.9-1.8,2.1-1.8
			c1.2,0,1.8,0.7,2,1.2l-0.9,0.6c-0.2-0.3-0.5-0.7-1.2-0.7c-0.5,0-0.8,0.3-0.8,0.7c0,1.2,3.1,0.7,3.1,2.9c0,1.2-1,1.9-2.3,1.9
			c-1.3,0-1.9-0.7-2.3-1.2L279.1,216.2z M280.7,209.2h1.4l-1.1,1.7h-1.1L280.7,209.2z"/>
		<path id="XMLID_184_" d="M288.4,213.4c-0.3-0.3-0.9-0.7-1.7-0.7c-1.2,0-2,0.9-2,2.1c0,1.2,0.9,2.1,2,2.1c0.8,0,1.4-0.5,1.6-0.7
			l0.4,1.1c-0.3,0.3-1,0.8-2.1,0.8c-1.9,0-3.3-1.4-3.3-3.3c0-1.9,1.4-3.3,3.3-3.3c1,0,1.7,0.5,2.1,0.8L288.4,213.4z M286.7,209.2
			h1.4l-1.1,1.7h-1.1L286.7,209.2z"/>
		<path id="XMLID_187_" d="M297.1,213.4l-1.4,4.5h-1.4l-2-6.3h1.4l1.4,4.8c0,0,0,0,1.4-4.8h1.2c1.4,4.8,1.4,4.8,1.4,4.8l1.4-4.8h1.4
			l-2,6.3h-1.5L297.1,213.4z"/>
		<path id="XMLID_189_" d="M304.1,220.1l0.9-2.3l-2.5-6.2h1.4l1.7,4.6l1.7-4.6h1.4l-3.3,8.4H304.1z"/>
		<path id="XMLID_191_" d="M309.4,209.3h1.3v3.3c0.2-0.3,0.8-1,2-1c1.8,0,3,1.4,3,3.3c0,1.9-1.3,3.3-3.1,3.3c-1.2,0-1.8-0.8-2-1v0.8
			h-1.2V209.3z M312.5,216.9c1.1,0,1.9-0.8,1.9-2.1c0-1.3-0.8-2.1-1.9-2.1c-1,0-1.9,0.8-1.9,2.1C310.7,216,311.4,216.9,312.5,216.9z
			"/>
		<path id="XMLID_194_" d="M319.7,211.5c1.9,0,3.3,1.4,3.3,3.3c0,1.9-1.4,3.3-3.3,3.3c-1.9,0-3.3-1.4-3.3-3.3
			S317.8,211.5,319.7,211.5z M319.7,216.9c1.2,0,2-0.9,2-2.1c0-1.2-0.9-2.1-2-2.1c-1.2,0-2,0.9-2,2.1
			C317.7,216,318.6,216.9,319.7,216.9z"/>
		<path id="XMLID_197_" d="M327.2,212.8c-1.4,0-1.8,1-1.8,2.4v2.7h-1.3v-6.3h1.3v1c0.2-0.6,0.9-1.1,1.8-1.1V212.8z"/>
		<path id="XMLID_199_" d="M332.7,213.4c-0.3-0.3-0.9-0.7-1.7-0.7c-1.2,0-2,0.9-2,2.1c0,1.2,0.9,2.1,2,2.1c0.8,0,1.4-0.5,1.6-0.7
			l0.4,1.1c-0.3,0.3-1,0.8-2.1,0.8c-1.9,0-3.3-1.4-3.3-3.3c0-1.9,1.4-3.3,3.3-3.3c1,0,1.7,0.5,2.1,0.8L332.7,213.4z"/>
		<path id="XMLID_201_" d="M333.8,217.1l3.2-4.3h-3.1v-1.1h4.7v0.9l-3.2,4.3h3.2v1.1h-4.8V217.1z"/>
		<path id="XMLID_203_" d="M341.8,213.9c0.7,0,1.3,0.2,1.5,0.5v-0.6c0-0.7-0.5-1.2-1.3-1.2c-0.7,0-1.3,0.2-1.8,0.5l-0.5-0.9
			c0.5-0.3,1.3-0.7,2.4-0.7c1.9,0,2.5,1,2.5,2.4v4h-1.1l-0.1-0.5c-0.3,0.4-0.8,0.6-1.6,0.6c-1.3,0-2.4-0.8-2.4-2.1
			C339.4,214.8,340.4,213.9,341.8,213.9z M342,217c0.8,0,1.3-0.4,1.3-1.1c0-0.7-0.5-1.1-1.3-1.1c-0.8,0-1.3,0.5-1.3,1.1
			C340.7,216.6,341.2,217,342,217z"/>
		<path id="XMLID_206_" d="M346.5,216.7c0.4,0,0.7,0.3,0.7,0.7c0,0.9-0.4,1.5-0.9,1.9l-0.4-0.4c0.2-0.2,0.5-0.5,0.6-0.9
			c-0.4,0-0.6-0.3-0.6-0.7C345.8,217,346.1,216.7,346.5,216.7z"/>
		<path id="XMLID_208_" d="M194.8,223.9h4.1v1.2h-2.8v2.4h2.5v1.2h-2.5v3.6h-1.3V223.9z"/>
		<path id="XMLID_210_" d="M203.2,227.2c-1.4,0-1.8,1-1.8,2.4v2.7h-1.3v-6.3h1.3v1c0.2-0.6,0.9-1.1,1.8-1.1V227.2z"/>
		<path id="XMLID_212_" d="M206.2,228.3c0.7,0,1.3,0.2,1.5,0.5v-0.6c0-0.7-0.5-1.2-1.3-1.2c-0.7,0-1.3,0.2-1.8,0.5l-0.5-0.9
			c0.5-0.3,1.3-0.7,2.4-0.7c1.9,0,2.5,1,2.5,2.4v4h-1.1l-0.1-0.5c-0.3,0.4-0.8,0.6-1.6,0.6c-1.3,0-2.4-0.8-2.4-2.1
			C203.8,229.2,204.8,228.3,206.2,228.3z M206.5,231.4c0.8,0,1.3-0.4,1.3-1.1c0-0.7-0.5-1.1-1.3-1.1c-0.8,0-1.3,0.5-1.3,1.1
			C205.1,231,205.7,231.4,206.5,231.4z"/>
		<path id="XMLID_215_" d="M211.2,233c0.2,0.1,1,0.5,1.8,0.5c1,0,2-0.4,2-1.6v-0.4c-0.1,0.2-0.8,1-2,1c-1.8,0-3-1.4-3-3.3
			c0-1.9,1.2-3.3,3-3.3c1.2,0,1.8,0.7,2,1v-0.8h1.2v5.4c0,2.4-1.4,3.1-3.3,3.1c-0.8,0-1.7-0.3-2.3-0.6L211.2,233z M213.2,227.1
			c-1.1,0-1.9,0.9-1.9,2.1c0,1.3,0.8,2.1,1.9,2.1c1.1,0,1.9-0.9,1.9-2.1C215.1,227.9,214.3,227.1,213.2,227.1z"/>
		<path id="XMLID_218_" d="M226.6,232.3h-1.3v-3.8c0-1-0.4-1.5-1.2-1.5c-0.7,0-1.3,0.5-1.3,1.5v3.7h-1.3v-3.9c0-0.9-0.5-1.4-1.2-1.4
			c-0.7,0-1.3,0.6-1.3,1.5v3.8h-1.3v-6.3h1.3c0,0.5,0,0.8,0,0.8c0.2-0.5,0.8-1,1.7-1c0.9,0,1.5,0.4,1.8,1c0.4-0.7,1.1-1,1.9-1
			c1.4,0,2.1,1,2.1,2.3V232.3z"/>
		<path id="XMLID_220_" d="M230.7,225.9c1.9,0,3,1.3,3,3.3c0,0.1,0,0.2,0,0.3H229c0,1.1,0.8,1.8,1.9,1.8c0.9,0,1.5-0.5,1.7-0.9
			l0.9,0.6c-0.3,0.5-1.1,1.4-2.6,1.4c-2,0-3.3-1.4-3.3-3.3C227.6,227.3,229,225.9,230.7,225.9z M232.4,228.6c0-1-0.8-1.6-1.7-1.6
			s-1.6,0.6-1.7,1.6H232.4z"/>
		<path id="XMLID_223_" d="M240,228.6v3.8h-1.3v-3.9c0-0.9-0.5-1.4-1.3-1.4c-0.8,0-1.4,0.6-1.4,1.5v3.8h-1.3v-6.3h1.3v0.8
			c0.3-0.5,0.9-1,1.8-1C239.4,225.9,240,227.2,240,228.6z"/>
		<path id="XMLID_225_" d="M241.5,224.8h1.3v1.3h1.3v1.1h-1.3v2.9c0,1,0.4,1.2,1.1,1.2c0.1,0,0.3,0,0.3,0v1.1c0,0-0.2,0-0.6,0
			c-1.5,0-2-1-2-2.6v-2.7h-0.7v-1.1h0.7V224.8z"/>
		<path id="XMLID_227_" d="M247.2,228.3c0.7,0,1.3,0.2,1.5,0.5v-0.6c0-0.7-0.5-1.2-1.3-1.2c-0.7,0-1.3,0.2-1.8,0.5l-0.5-0.9
			c0.5-0.3,1.3-0.7,2.4-0.7c1.9,0,2.5,1,2.5,2.4v4h-1.1l-0.1-0.5c-0.3,0.4-0.8,0.6-1.6,0.6c-1.3,0-2.4-0.8-2.4-2.1
			C244.8,229.2,245.8,228.3,247.2,228.3z M247.4,231.4c0.8,0,1.3-0.4,1.3-1.1c0-0.7-0.5-1.1-1.3-1.1c-0.8,0-1.3,0.5-1.3,1.1
			C246.1,231,246.6,231.4,247.4,231.4z"/>
		<path id="XMLID_230_" d="M256,227.8c-0.3-0.3-0.9-0.7-1.7-0.7c-1.2,0-2,0.9-2,2.1c0,1.2,0.9,2.1,2,2.1c0.8,0,1.4-0.5,1.6-0.7
			l0.4,1.1c-0.3,0.3-1,0.8-2.1,0.8c-1.9,0-3.3-1.4-3.3-3.3c0-1.9,1.4-3.3,3.3-3.3c1,0,1.7,0.5,2.1,0.8L256,227.8z"/>
		<path id="XMLID_232_" d="M257.4,226.1h1.3v6.4c0,1.6-1,2.1-2.2,2.1c-0.2,0-0.4,0-0.4,0v-1.1c0,0,0.2,0,0.3,0c0.6,0,1-0.3,1-1.1
			V226.1z M258,223.7c0.5,0,0.8,0.4,0.8,0.8c0,0.5-0.4,0.8-0.8,0.8c-0.5,0-0.8-0.4-0.8-0.8C257.2,224.1,257.6,223.7,258,223.7z"/>
		<path id="XMLID_235_" d="M262.2,228.3c0.7,0,1.3,0.2,1.5,0.5v-0.6c0-0.7-0.5-1.2-1.3-1.2c-0.7,0-1.3,0.2-1.8,0.5l-0.5-0.9
			c0.5-0.3,1.3-0.7,2.4-0.7c1.9,0,2.5,1,2.5,2.4v4h-1.1l-0.1-0.5c-0.3,0.4-0.8,0.6-1.6,0.6c-1.3,0-2.4-0.8-2.4-2.1
			C259.8,229.2,260.8,228.3,262.2,228.3z M262.4,231.4c0.8,0,1.3-0.4,1.3-1.1c0-0.7-0.5-1.1-1.3-1.1c-0.8,0-1.3,0.5-1.3,1.1
			C261.1,231,261.6,231.4,262.4,231.4z"/>
		<path id="XMLID_238_" d="M269.4,226.1h1.2v0.8c0.2-0.2,0.8-1,2-1c1.8,0,3.1,1.4,3.1,3.3c0,1.9-1.2,3.3-3,3.3c-1.2,0-1.9-0.7-2-1
			v3.1h-1.3V226.1z M272.5,231.3c1.1,0,1.9-0.9,1.9-2.1c0-1.3-0.8-2.1-1.9-2.1c-1.2,0-1.9,1-1.9,2.1
			C270.7,230.5,271.5,231.3,272.5,231.3z"/>
		<path id="XMLID_241_" d="M278.8,228.3c0.7,0,1.3,0.2,1.5,0.5v-0.6c0-0.7-0.5-1.2-1.3-1.2c-0.7,0-1.3,0.2-1.8,0.5l-0.5-0.9
			c0.5-0.3,1.3-0.7,2.4-0.7c1.9,0,2.5,1,2.5,2.4v4h-1.1l-0.1-0.5c-0.3,0.4-0.8,0.6-1.6,0.6c-1.3,0-2.4-0.8-2.4-2.1
			C276.4,229.2,277.4,228.3,278.8,228.3z M279.1,231.4c0.8,0,1.3-0.4,1.3-1.1c0-0.7-0.5-1.1-1.3-1.1c-0.8,0-1.3,0.5-1.3,1.1
			C277.7,231,278.3,231.4,279.1,231.4z"/>
		<path id="XMLID_244_" d="M286.1,227.2c-1.4,0-1.8,1-1.8,2.4v2.7H283v-6.3h1.3v1c0.2-0.6,0.9-1.1,1.8-1.1V227.2z"/>
		<path id="XMLID_246_" d="M287.1,223.7h1.3v8.7h-1.3V223.7z"/>
		<path id="XMLID_248_" d="M291.9,228.3c0.7,0,1.3,0.2,1.5,0.5v-0.6c0-0.7-0.5-1.2-1.3-1.2c-0.7,0-1.3,0.2-1.8,0.5l-0.5-0.9
			c0.5-0.3,1.3-0.7,2.4-0.7c1.9,0,2.5,1,2.5,2.4v4h-1.1l-0.1-0.5c-0.3,0.4-0.8,0.6-1.6,0.6c-1.3,0-2.4-0.8-2.4-2.1
			C289.4,229.2,290.4,228.3,291.9,228.3z M292.1,231.4c0.8,0,1.3-0.4,1.3-1.1c0-0.7-0.5-1.1-1.3-1.1c-0.8,0-1.3,0.5-1.3,1.1
			C290.8,231,291.3,231.4,292.1,231.4z"/>
		<path id="XMLID_251_" d="M304.9,232.3h-1.3v-3.8c0-1-0.4-1.5-1.2-1.5c-0.7,0-1.3,0.5-1.3,1.5v3.7h-1.3v-3.9c0-0.9-0.5-1.4-1.2-1.4
			c-0.7,0-1.3,0.6-1.3,1.5v3.8H296v-6.3h1.3c0,0.5,0,0.8,0,0.8c0.2-0.5,0.8-1,1.7-1c0.9,0,1.5,0.4,1.8,1c0.4-0.7,1.1-1,1.9-1
			c1.4,0,2.1,1,2.1,2.3V232.3z"/>
		<path id="XMLID_253_" d="M309,225.9c1.9,0,3,1.3,3,3.3c0,0.1,0,0.2,0,0.3h-4.7c0,1.1,0.8,1.8,1.9,1.8c0.9,0,1.5-0.5,1.7-0.9
			l0.9,0.6c-0.3,0.5-1.1,1.4-2.6,1.4c-2,0-3.3-1.4-3.3-3.3C305.9,227.3,307.3,225.9,309,225.9z M310.7,228.6c0-1-0.8-1.6-1.7-1.6
			s-1.6,0.6-1.7,1.6H310.7z"/>
		<path id="XMLID_256_" d="M318.3,228.6v3.8H317v-3.9c0-0.9-0.5-1.4-1.3-1.4c-0.8,0-1.4,0.6-1.4,1.5v3.8h-1.3v-6.3h1.3v0.8
			c0.3-0.5,0.9-1,1.8-1C317.7,225.9,318.3,227.2,318.3,228.6z"/>
		<path id="XMLID_258_" d="M319.8,224.8h1.3v1.3h1.3v1.1h-1.3v2.9c0,1,0.4,1.2,1.1,1.2c0.1,0,0.3,0,0.3,0v1.1c0,0-0.2,0-0.6,0
			c-1.5,0-2-1-2-2.6v-2.7h-0.7v-1.1h0.7V224.8z"/>
		<path id="XMLID_260_" d="M323.4,229.8v-3.8h1.3v3.9c0,0.9,0.5,1.4,1.3,1.4c0.8,0,1.4-0.6,1.4-1.5v-3.8h1.3v6.3h-1.3v-0.8
			c-0.3,0.5-0.9,1-1.8,1C324,232.5,323.4,231.2,323.4,229.8z"/>
	</g>
	<rect id="XMLID_13_" x="134.1" y="201.8" class="st1" width="255.1" height="39.7"/>
	<g id="XMLID_26_">
		<g id="XMLID_56_">
			<line id="XMLID_73_" class="st1" x1="261.6" y1="258.1" x2="261.6" y2="260.1"/>
			<line id="XMLID_72_" class="st3" x1="261.6" y1="263.8" x2="261.6" y2="291"/>
			<line id="XMLID_71_" class="st1" x1="261.6" y1="292.8" x2="261.6" y2="294.8"/>
			<g id="XMLID_64_">
				<polygon id="XMLID_65_" points="256.6,259.6 261.6,251 266.6,259.6 				"/>
			</g>
			<g id="XMLID_57_">
				<polygon id="XMLID_58_" points="256.6,293.3 261.6,302 266.6,293.3 				"/>
			</g>
		</g>
	</g>
	<rect id="XMLID_14_" x="204.5" y="316" class="st4" width="113.4" height="39.7"/>
	<g id="XMLID_27_" class="st5">
		<rect id="XMLID_28_" x="0.5" y="201.8" class="st6" width="56.7" height="39.7"/>
		<g id="XMLID_29_" class="st7">
			<path id="XMLID_112_" d="M24.4,210.8l-0.7,0.6c-0.3-0.4-1-1-2.3-1c-2.2,0-3.9,1.8-3.9,4c0,1.7,1.1,2.9,2.7,2.9
				c1.4,0,2.3-0.6,2.6-0.9l0.3-1.8h-1.9l0.1-0.9h2.8l-0.5,3c-1.1,0.9-2.2,1.3-3.7,1.3c-2.1,0-3.6-1.5-3.6-3.7c0-2.8,2.3-5,5-5
				C23.1,209.5,24,210.3,24.4,210.8z"/>
			<path id="XMLID_114_" d="M26.5,209.7h1l-0.6,3.7h4.5l0.6-3.7h1l-1.4,8.4h-1l0.6-3.8h-4.5l-0.6,3.8h-1L26.5,209.7z"/>
			<path id="XMLID_116_" d="M34.8,209.7h1l-1.4,8.4h-1L34.8,209.7z"/>
			<path id="XMLID_118_" d="M36.8,216.9c0.3,0,0.6,0.2,0.6,0.6c0,0.8-0.6,1.5-1.3,2l-0.4-0.4c0.2-0.2,0.6-0.5,0.7-0.9
				c-0.3,0-0.5-0.3-0.5-0.6C36,217.2,36.4,216.9,36.8,216.9z M37.6,212.2c0.3,0,0.6,0.3,0.6,0.6c0,0.4-0.4,0.8-0.8,0.8
				c-0.3,0-0.6-0.3-0.6-0.6C36.8,212.6,37.2,212.2,37.6,212.2z"/>
			<path id="XMLID_121_" d="M17.7,224.1h4l-0.1,0.9h-3l-0.5,2.8h2.6l-0.1,0.9h-2.6l-0.5,3h3.1l-0.1,0.9h-4.1L17.7,224.1z"/>
			<path id="XMLID_123_" d="M23.4,224.1h1l3.5,6.9l1.2-6.9h1l-1.4,8.4h-1l-3.5-6.8l-1.1,6.8h-1L23.4,224.1z"/>
			<path id="XMLID_125_" d="M31.8,224.1h2.3c1.3,0,2.1,0.7,2.1,2c0,1.7-1.3,2.9-3,2.9H32l-0.6,3.5h-1L31.8,224.1z M33.4,228.1
				c1.2,0,1.9-0.8,1.9-1.9c0-0.8-0.5-1.3-1.4-1.3h-1.2l-0.5,3.2H33.4z"/>
			<path id="XMLID_128_" d="M37.9,224.1h2.3c1.3,0,2.1,0.7,2.1,2c0,1.7-1.3,2.9-3,2.9h-1.3l-0.6,3.5h-1L37.9,224.1z M39.5,228.1
				c1.2,0,1.9-0.8,1.9-1.9c0-0.8-0.5-1.3-1.4-1.3h-1.2l-0.5,3.2H39.5z"/>
		</g>
	</g>
	<line id="XMLID_30_" class="st8" x1="134.1" y1="221.6" x2="57.2" y2="221.6"/>
	<g id="XMLID_15_">
		<path id="XMLID_43_" d="M230.7,327l-0.5,0.5c-0.3-0.3-0.9-0.8-2-0.8c-1.6,0-2.7,1.2-2.7,2.9c0,1.7,1.1,2.9,2.7,2.9
			c1.2,0,1.8-0.5,2-0.7v-1.5h-1.6v-0.7h2.3v2.5c-0.8,0.8-1.7,1.1-2.9,1.1c-2,0-3.5-1.5-3.5-3.6c0-2,1.5-3.6,3.5-3.6
			C229.5,325.9,230.4,326.6,230.7,327z"/>
		<path id="XMLID_46_" d="M232.4,326.1h0.8v3.1h3.7v-3.1h0.8v7h-0.8v-3.2h-3.7v3.2h-0.8V326.1z"/>
		<path id="XMLID_48_" d="M239.3,326.1h0.8v7h-0.8V326.1z"/>
		<path id="XMLID_52_" d="M241.9,332.1c0.3,0,0.6,0.2,0.6,0.6c0,0.7-0.3,1.2-0.8,1.6l-0.4-0.4c0.2-0.1,0.4-0.4,0.5-0.7
			c-0.3,0-0.5-0.3-0.5-0.5C241.4,332.3,241.6,332.1,241.9,332.1z"/>
		<path id="XMLID_63_" d="M246.6,331.8c0.2,0.4,0.5,0.8,1.2,0.8c0.6,0,1.1-0.4,1.1-0.9c0-1-2.2-0.9-2.2-2.4c0-0.9,0.8-1.5,1.9-1.5
			c1,0,1.4,0.6,1.5,1l-0.6,0.3c-0.1-0.3-0.3-0.7-1-0.7c-0.5,0-1,0.3-1,0.8c0,1,2.2,1,2.2,2.4c0,1-0.8,1.6-2,1.6
			c-1,0-1.5-0.6-1.7-1.1L246.6,331.8z"/>
		<path id="XMLID_80_" d="M253.4,327.7c1.4,0,2.1,0.9,2.1,2.1c0,0.4-0.1,0.6-0.1,0.8h-4.2c-0.2,1.2,0.5,1.9,1.6,1.9
			c0.9,0,1.4-0.5,1.7-0.8l0.5,0.4c-0.4,0.5-1.2,1.1-2.4,1.1c-1.4,0-2.3-0.9-2.3-2.3C250.4,329.2,251.8,327.7,253.4,327.7z
			 M254.7,330.1c0.1-1.1-0.5-1.6-1.4-1.6c-0.9,0-1.7,0.7-2,1.6H254.7z"/>
		<path id="XMLID_83_" d="M258.2,329.8c0.7,0,1.1,0.3,1.3,0.5l0.1-0.6c0.1-0.7-0.3-1.1-1.1-1.1c-0.6,0-1.2,0.3-1.6,0.5l-0.2-0.6
			c0.4-0.2,1.1-0.6,2-0.6c1.3,0,1.9,0.8,1.7,1.9l-0.6,3.4h-0.7l0-0.4c-0.3,0.3-0.8,0.6-1.5,0.6c-1,0-1.7-0.6-1.7-1.5
			C255.9,330.6,257,329.8,258.2,329.8z M257.9,332.5c0.8,0,1.5-0.5,1.5-1.2c0-0.6-0.4-0.9-1.1-0.9c-0.9,0-1.5,0.5-1.5,1.2
			C256.8,332.1,257.2,332.5,257.9,332.5z"/>
		<path id="XMLID_86_" d="M262.3,326.8h0.8l-0.2,1.1h1.1l-0.1,0.7h-1.1l-0.5,2.7c-0.2,1,0.1,1.2,0.7,1.2c0.1,0,0.3,0,0.3,0l-0.1,0.7
			c0,0-0.2,0-0.5,0c-0.9,0-1.4-0.6-1.2-1.7l0.5-2.8h-0.6l0.1-0.7h0.6L262.3,326.8z"/>
		<path id="XMLID_88_" d="M269.6,327.7c1.4,0,2.1,0.9,2.1,2.1c0,0.4-0.1,0.6-0.1,0.8h-4.2c-0.2,1.2,0.5,1.9,1.6,1.9
			c0.9,0,1.4-0.5,1.7-0.8l0.5,0.4c-0.4,0.5-1.2,1.1-2.4,1.1c-1.4,0-2.3-0.9-2.3-2.3C266.7,329.2,268,327.7,269.6,327.7z M271,330.1
			c0.1-1.1-0.5-1.6-1.4-1.6c-0.9,0-1.7,0.7-2,1.6H271z"/>
		<path id="XMLID_91_" d="M274.3,331l-1.8,2.1h-1l2.4-2.7l-1.4-2.4h0.9l1,1.9l1.6-1.9h0.9l-2.2,2.6l1.5,2.6h-0.9L274.3,331z"/>
		<path id="XMLID_93_" d="M281.6,329.1c-0.2-0.2-0.6-0.7-1.4-0.7c-1.2,0-2.2,1-2.2,2.3c0,1,0.6,1.7,1.6,1.7c0.8,0,1.4-0.5,1.7-0.7
			l0.1,0.7c-0.3,0.2-0.9,0.7-1.9,0.7c-1.4,0-2.3-1-2.3-2.3c0-1.7,1.4-3.1,3.1-3.1c0.9,0,1.5,0.5,1.8,0.7L281.6,329.1z"/>
		<path id="XMLID_95_" d="M285.2,327.7c1.4,0,2.1,0.9,2.1,2.1c0,0.4-0.1,0.6-0.1,0.8h-4.2c-0.2,1.2,0.5,1.9,1.6,1.9
			c0.9,0,1.4-0.5,1.7-0.8l0.5,0.4c-0.4,0.5-1.2,1.1-2.4,1.1c-1.4,0-2.3-0.9-2.3-2.3C282.3,329.2,283.6,327.7,285.2,327.7z
			 M286.6,330.1c0.1-1.1-0.5-1.6-1.4-1.6c-0.9,0-1.7,0.7-2,1.6H286.6z"/>
		<path id="XMLID_98_" d="M288.2,331.8c0.2,0.4,0.5,0.8,1.2,0.8c0.6,0,1.1-0.4,1.1-0.9c0-1-2.2-0.9-2.2-2.4c0-0.9,0.8-1.5,1.9-1.5
			c1,0,1.4,0.6,1.5,1l-0.6,0.3c-0.1-0.3-0.3-0.7-1-0.7c-0.5,0-1,0.3-1,0.8c0,1,2.2,1,2.2,2.4c0,1-0.8,1.6-2,1.6
			c-1,0-1.5-0.6-1.7-1.1L288.2,331.8z"/>
		<path id="XMLID_100_" d="M292.4,331.8c0.2,0.4,0.5,0.8,1.2,0.8c0.6,0,1.1-0.4,1.1-0.9c0-1-2.2-0.9-2.2-2.4c0-0.9,0.8-1.5,1.9-1.5
			c1,0,1.4,0.6,1.5,1l-0.6,0.3c-0.1-0.3-0.3-0.7-1-0.7c-0.5,0-1,0.3-1,0.8c0,1,2.2,1,2.2,2.4c0,1-0.8,1.6-2,1.6
			c-1,0-1.5-0.6-1.7-1.1L292.4,331.8z"/>
		<path id="XMLID_102_" d="M251,338.1h3.3v0.7h-2.5v2.3h2.2v0.7h-2.2v2.5h2.6v0.7H251V338.1z"/>
		<path id="XMLID_104_" d="M255.7,338.1h0.8l3.9,5.7v-5.7h0.8v7h-0.8l-3.9-5.7v5.7h-0.8V338.1z"/>
		<path id="XMLID_106_" d="M262.7,338.1h1.9c1.3,0,2.1,0.7,2.1,2c0,1.3-0.9,2-2.1,2h-1.1v2.9h-0.8V338.1z M264.6,341.4
			c0.8,0,1.3-0.5,1.3-1.3c0-0.8-0.5-1.3-1.3-1.3h-1v2.6H264.6z"/>
		<path id="XMLID_109_" d="M267.8,338.1h1.9c1.3,0,2.1,0.7,2.1,2c0,1.3-0.9,2-2.1,2h-1.1v2.9h-0.8V338.1z M269.7,341.4
			c0.8,0,1.3-0.5,1.3-1.3c0-0.8-0.5-1.3-1.3-1.3h-1v2.6H269.7z"/>
	</g>
	<g id="XMLID_32_">
		<g id="XMLID_74_">
			<line id="XMLID_79_" class="st1" x1="151.2" y1="116" x2="176.6" y2="116"/>
			<g id="XMLID_77_">
				<polygon id="XMLID_78_" points="152.7,121 144.1,116 152.7,111 				"/>
			</g>
			<g id="XMLID_75_">
				<polygon id="XMLID_76_" points="175.1,121 183.8,116 175.1,111 				"/>
			</g>
		</g>
	</g>
</g>
<g id="Warstwa_3">
	<g id="XMLID_50_">
		<g id="XMLID_143_">
			<line id="XMLID_146_" class="st1" x1="66.2" y1="144.5" x2="66.2" y2="183.8"/>
			<g id="XMLID_144_">
				<polygon id="XMLID_145_" points="61.2,182.4 66.2,191 71.2,182.4 				"/>
			</g>
		</g>
	</g>
	<rect id="XMLID_42_" x="23.9" y="201.8" class="st2" width="85" height="39.7"/>
	<line id="XMLID_41_" class="st1" x1="91.2" y1="195.6" x2="91.2" y2="172.9"/>
	<g id="XMLID_35_">
		<g id="XMLID_67_">
			<line id="XMLID_141_" class="st1" x1="91.4" y1="172.9" x2="234.5" y2="172.9"/>
			<g id="XMLID_68_">
				<polygon id="XMLID_140_" points="233,177.9 241.6,172.9 233,167.9 				"/>
			</g>
		</g>
	</g>
	<g id="XMLID_33_">
		<rect id="XMLID_436_" x="23.9" y="201.8" class="st9" width="85" height="39.7"/>
		<path id="XMLID_373_" d="M42.6,213.5h0.9v4.8h2v0.8h-2.8V213.5z"/>
		<path id="XMLID_375_" d="M46.2,213.5h0.9v5.6h-0.9V213.5z"/>
		<path id="XMLID_377_" d="M52.6,218.6c-0.3,0.2-0.9,0.6-1.8,0.6c-1.7,0-2.9-1.3-2.9-2.9c0-1.6,1.2-2.9,2.9-2.9
			c0.8,0,1.4,0.3,1.7,0.5l-0.3,0.8c-0.2-0.2-0.8-0.5-1.4-0.5c-1.2,0-2,0.9-2,2.1c0,1.2,0.8,2.1,2,2.1c0.7,0,1.2-0.4,1.5-0.5
			L52.6,218.6z"/>
		<path id="XMLID_379_" d="M53.1,218.5l3-4.2h-2.9v-0.8h4.1v0.6l-3,4.2h3.1v0.8h-4.2V218.5z"/>
		<path id="XMLID_381_" d="M58.2,213.5h1.6c1.1,0,1.8,0.6,1.8,1.5c0,0.5-0.3,1-0.7,1.2c0.6,0.2,0.9,0.7,0.9,1.3c0,1-0.8,1.6-1.8,1.6
			h-1.8V213.5z M59.9,215.8c0.5,0,0.8-0.3,0.8-0.8c0-0.5-0.3-0.8-0.8-0.8h-0.8v1.6H59.9z M59.9,218.3c0.6,0,1-0.3,1-0.9
			c0-0.6-0.4-0.9-1-0.9h-0.8v1.8H59.9z"/>
		<path id="XMLID_385_" d="M63.6,217.4l-0.6,1.6h-0.9l2-5.6h0.9l2,5.6h-0.9l-0.6-1.6H63.6z M64.7,214.4l-0.8,2.3h1.6L64.7,214.4z"/>
		<path id="XMLID_388_" d="M69.8,213.5h1.6c1.1,0,1.8,0.7,1.8,1.7c0,1-0.8,1.7-1.8,1.7h-0.7v2.2h-0.9V213.5z M71.4,216.1
			c0.6,0,1-0.4,1-0.9c0-0.6-0.4-0.9-1-0.9h-0.6v1.8H71.4z"/>
		<path id="XMLID_391_" d="M74.6,217.4l-0.6,1.6h-0.9l2-5.6h0.9l2,5.6h-0.9l-0.6-1.6H74.6z M75.6,214.4l-0.8,2.3h1.6L75.6,214.4z"/>
		<path id="XMLID_394_" d="M78.8,213.5h1.5c1.2,0,1.9,0.7,1.9,1.6c0,0.6-0.3,1.2-0.9,1.4l1.4,2.5h-1l-1.2-2.3h-0.8v2.3h-0.9V213.5z
			 M80.3,216c0.6,0,1-0.3,1-0.9c0-0.5-0.3-0.9-1-0.9h-0.6v1.8H80.3z"/>
		<path id="XMLID_397_" d="M84.2,214.3h-1.4v-0.8h3.7v0.8h-1.4v4.8h-0.9V214.3z"/>
		<path id="XMLID_399_" d="M87.3,213.5h0.9v5.6h-0.9V213.5z"/>
		<path id="XMLID_401_" d="M89.3,213.5h0.9v5.6h-0.9V213.5z"/>
		<path id="XMLID_403_" d="M31.8,224.5h1.5c1.2,0,1.9,0.7,1.9,1.6c0,0.6-0.3,1.2-0.9,1.4l1.4,2.5h-1l-1.2-2.3h-0.8v2.3h-0.9V224.5z
			 M33.3,227c0.6,0,1-0.3,1-0.9c0-0.5-0.3-0.9-1-0.9h-0.6v1.8H33.3z"/>
		<path id="XMLID_406_" d="M38.9,224.4c1.7,0,2.9,1.3,2.9,2.9c0,1.6-1.2,2.9-2.9,2.9c-1.7,0-2.9-1.2-2.9-2.9
			C36,225.6,37.3,224.4,38.9,224.4z M38.9,229.3c1.1,0,2-0.9,2-2.1c0-1.2-0.8-2.1-2-2.1c-1.1,0-2,0.9-2,2.1
			C37,228.5,37.8,229.3,38.9,229.3z"/>
		<path id="XMLID_409_" d="M42.4,229.5l3-4.2h-2.9v-0.8h4.1v0.6l-3,4.2h3.1v0.8h-4.2V229.5z"/>
		<path id="XMLID_411_" d="M47.5,224.5h0.9v2.6l2.1-2.6h1l-2.2,2.7l2.3,2.9h-1l-2.1-2.8v2.8h-0.9V224.5z"/>
		<path id="XMLID_413_" d="M51.7,227.5l0.5-0.3v-2.8h0.9v2.3l0.9-0.6v0.9l-0.9,0.5v1.7h2v0.8h-2.8v-2l-0.5,0.3V227.5z"/>
		<path id="XMLID_415_" d="M56.8,228.4l-0.6,1.6h-0.9l2-5.6h0.9l2,5.6h-0.9l-0.6-1.6H56.8z M57.8,225.4l-0.8,2.3h1.6L57.8,225.4z"/>
		<path id="XMLID_418_" d="M61,224.5h1.3c1.9,0,3,1,3,2.8c0,1.8-1.1,2.8-3,2.8H61V224.5z M62.4,229.3c1.2,0,2-0.7,2-2
			c0-1.3-0.8-2-2-2h-0.5v4H62.4z"/>
		<path id="XMLID_421_" d="M72.8,225.2l-0.6,0.6c-0.2-0.2-0.7-0.6-1.5-0.6c-1.2,0-2,0.9-2,2.1c0,1.2,0.8,2.1,2,2.1
			c0.9,0,1.3-0.4,1.5-0.5v-0.9h-1.2v-0.8h2v2.1c-0.6,0.6-1.3,0.9-2.4,0.9c-1.6,0-2.8-1.2-2.8-2.9c0-1.6,1.2-2.9,2.9-2.9
			C71.9,224.4,72.6,224.9,72.8,225.2z"/>
		<path id="XMLID_423_" d="M73.6,227.5l0.5-0.3v-2.8H75v2.3l0.9-0.6v0.9l-0.9,0.5v1.7h2v0.8h-2.8v-2l-0.5,0.3V227.5z"/>
		<path id="XMLID_425_" d="M80.3,224.4c1.7,0,2.9,1.3,2.9,2.9c0,1.6-1.2,2.9-2.9,2.9c-1.7,0-2.9-1.2-2.9-2.9
			C77.4,225.6,78.6,224.4,80.3,224.4z M80.3,229.3c1.1,0,2-0.9,2-2.1c0-1.2-0.8-2.1-2-2.1c-1.1,0-2,0.9-2,2.1
			C78.3,228.5,79.1,229.3,80.3,229.3z"/>
		<path id="XMLID_428_" d="M84.4,228.6c0.2,0.4,0.5,0.8,1.1,0.8c0.5,0,0.8-0.3,0.8-0.8c0-1.2-2.5-0.9-2.5-2.7c0-0.9,0.6-1.5,1.7-1.5
			c1.1,0,1.5,0.8,1.7,1.1l-0.7,0.3c-0.1-0.3-0.4-0.7-0.9-0.7c-0.5,0-0.8,0.3-0.8,0.7c0,1.1,2.5,0.9,2.5,2.7c0,0.9-0.7,1.6-1.8,1.6
			c-1.1,0-1.6-0.8-1.8-1.3L84.4,228.6z"/>
		<path id="XMLID_430_" d="M90.7,224.4c1.7,0,2.9,1.3,2.9,2.9c0,1.6-1.2,2.9-2.9,2.9c-1.7,0-2.9-1.2-2.9-2.9
			C87.8,225.6,89,224.4,90.7,224.4z M90.7,229.3c1.1,0,2-0.9,2-2.1c0-1.2-0.8-2.1-2-2.1c-1.1,0-2,0.9-2,2.1
			C88.7,228.5,89.6,229.3,90.7,229.3z M90.8,223h0.9l-0.7,1.1h-0.7L90.8,223z"/>
		<path id="XMLID_434_" d="M97.7,225.8l-1.2,4.3h-1l-1.6-5.6h1L96,229l1.2-4.5h0.8l1.2,4.5l1.1-4.5h0.9l-1.5,5.6h-1L97.7,225.8z"/>
	</g>
	<line id="XMLID_45_" class="st1" x1="241.7" y1="252.3" x2="241.7" y2="275"/>
	<line id="XMLID_7_" class="st1" x1="241.5" y1="275" x2="91.3" y2="275"/>
	<g id="XMLID_31_">
		<g id="XMLID_54_">
			<line id="XMLID_61_" class="st1" x1="91.3" y1="275" x2="91.3" y2="259.5"/>
			<g id="XMLID_59_">
				<polygon id="XMLID_60_" points="96.3,260.9 91.3,252.3 86.3,260.9 				"/>
			</g>
		</g>
	</g>
	<g id="XMLID_34_">
	</g>
	<g id="XMLID_51_">
	</g>
	<g id="XMLID_437_">
	</g>
	<g id="XMLID_438_">
	</g>
	<g id="XMLID_439_">
	</g>
	<g id="XMLID_440_">
	</g>
	<g id="XMLID_441_">
	</g>
</g>
</svg>
